{
  "accessors": [
    {
      "bufferView": 0, 
      "byteOffset": 0, 
      "componentType": 5126, 
      "count": 706, 
      "max": [
        58.2, 
        28.1, 
        3.1
      ], 
      "min": [
        -53.1, 
        -31.69951904316853, 
        -0.1
      ], 
      "type": "VEC3"
    }, 
    {
      "bufferView": 1, 
      "byteOffset": 0, 
      "componentType": 5123, 
      "count": 4344, 
      "type": "SCALAR"
    }, 
    {
      "bufferView": 2, 
      "byteOffset": 0, 
      "componentType": 5126, 
      "count": 316, 
      "max": [
        53.1, 
        53.1, 
        3.1000000000000036
      ], 
      "min": [
        -53.1, 
        -53.10000000000001, 
        -0.10000000000000356
      ], 
      "type": "VEC3"
    }, 
    {
      "bufferView": 3, 
      "byteOffset": 0, 
      "componentType": 5123, 
      "count": 1932, 
      "type": "SCALAR"
    }, 
    {
      "bufferView": 4, 
      "byteOffset": 0, 
      "componentType": 5126, 
      "count": 84, 
      "max": [
        22.1, 
        53.1, 
        3.1
      ], 
      "min": [
        -25.100000000000005, 
        -53.1, 
        -0.1
      ], 
      "type": "VEC3"
    }, 
    {
      "bufferView": 5, 
      "byteOffset": 0, 
      "componentType": 5121, 
      "count": 468, 
      "type": "SCALAR"
    }, 
    {
      "bufferView": 6, 
      "byteOffset": 0, 
      "componentType": 5126, 
      "count": 120, 
      "max": [
        53.1, 
        53.85, 
        3.1
      ], 
      "min": [
        -54.15, 
        -55.35, 
        -0.1
      ], 
      "type": "VEC3"
    }, 
    {
      "bufferView": 7, 
      "byteOffset": 0, 
      "componentType": 5121, 
      "count": 708, 
      "type": "SCALAR"
    }, 
    {
      "bufferView": 8, 
      "byteOffset": 0, 
      "componentType": 5126, 
      "count": 84, 
      "max": [
        20.6, 
        53.1, 
        3.1
      ], 
      "min": [
        -23.600000000000005, 
        -53.1, 
        -0.1
      ], 
      "type": "VEC3"
    }, 
    {
      "bufferView": 9, 
      "byteOffset": 0, 
      "componentType": 5121, 
      "count": 468, 
      "type": "SCALAR"
    }, 
    {
      "bufferView": 10, 
      "byteOffset": 0, 
      "componentType": 5126, 
      "count": 710, 
      "max": [
        53.1, 
        28.1, 
        3.100000000000007
      ], 
      "min": [
        -58.19963440516859, 
        -31.699789894571964, 
        -0.10000000000000711
      ], 
      "type": "VEC3"
    }, 
    {
      "bufferView": 11, 
      "byteOffset": 0, 
      "componentType": 5123, 
      "count": 4368, 
      "type": "SCALAR"
    }
  ], 
  "asset": {
    "generator": "cqparts_0.2.2.dev1", 
    "version": "2.0"
  }, 
  "bufferViews": [
    {
      "buffer": 0, 
      "byteLength": 8472, 
      "byteOffset": 0, 
      "byteStride": 12, 
      "target": 34962
    }, 
    {
      "buffer": 0, 
      "byteLength": 8688, 
      "byteOffset": 8472, 
      "target": 34963
    }, 
    {
      "buffer": 1, 
      "byteLength": 3792, 
      "byteOffset": 0, 
      "byteStride": 12, 
      "target": 34962
    }, 
    {
      "buffer": 1, 
      "byteLength": 3864, 
      "byteOffset": 3792, 
      "target": 34963
    }, 
    {
      "buffer": 2, 
      "byteLength": 1008, 
      "byteOffset": 0, 
      "byteStride": 12, 
      "target": 34962
    }, 
    {
      "buffer": 2, 
      "byteLength": 468, 
      "byteOffset": 1008, 
      "target": 34963
    }, 
    {
      "buffer": 3, 
      "byteLength": 1440, 
      "byteOffset": 0, 
      "byteStride": 12, 
      "target": 34962
    }, 
    {
      "buffer": 3, 
      "byteLength": 708, 
      "byteOffset": 1440, 
      "target": 34963
    }, 
    {
      "buffer": 4, 
      "byteLength": 1008, 
      "byteOffset": 0, 
      "byteStride": 12, 
      "target": 34962
    }, 
    {
      "buffer": 4, 
      "byteLength": 468, 
      "byteOffset": 1008, 
      "target": 34963
    }, 
    {
      "buffer": 5, 
      "byteLength": 8520, 
      "byteOffset": 0, 
      "byteStride": 12, 
      "target": 34962
    }, 
    {
      "buffer": 5, 
      "byteLength": 8736, 
      "byteOffset": 8520, 
      "target": 34963
    }
  ], 
  "buffers": [
    {
      "byteLength": 17160, 
      "uri": "out-right.bin"
    }, 
    {
      "byteLength": 7656, 
      "uri": "out-bottom.bin"
    }, 
    {
      "byteLength": 1476, 
      "uri": "out-front.bin"
    }, 
    {
      "byteLength": 2148, 
      "uri": "out-top.bin"
    }, 
    {
      "byteLength": 1476, 
      "uri": "out-back.bin"
    }, 
    {
      "byteLength": 17256, 
      "uri": "out-left.bin"
    }
  ], 
  "materials": [
    {
      "alphaCutoff": 1.0, 
      "alphaMode": "BLEND", 
      "pbrMetallicRoughness": {
        "baseColorFactor": [
          0.3922, 
          1.0, 
          0.2745, 
          1.0
        ], 
        "metallicFactor": 0.1, 
        "roughnessFactor": 0.7
      }
    }, 
    {
      "alphaCutoff": 1.0, 
      "alphaMode": "BLEND", 
      "pbrMetallicRoughness": {
        "baseColorFactor": [
          0.3922, 
          0.5882, 
          0.2745, 
          1.0
        ], 
        "metallicFactor": 0.1, 
        "roughnessFactor": 0.7
      }
    }, 
    {
      "alphaCutoff": 1.0, 
      "alphaMode": "BLEND", 
      "pbrMetallicRoughness": {
        "baseColorFactor": [
          0.3922, 
          0.5882, 
          0.4314, 
          1.0
        ], 
        "metallicFactor": 0.1, 
        "roughnessFactor": 0.7
      }
    }, 
    {
      "alphaCutoff": 1.0, 
      "alphaMode": "BLEND", 
      "pbrMetallicRoughness": {
        "baseColorFactor": [
          0.3922, 
          0.5882, 
          0.2745, 
          1.0
        ], 
        "metallicFactor": 0.1, 
        "roughnessFactor": 0.7
      }
    }, 
    {
      "alphaCutoff": 1.0, 
      "alphaMode": "BLEND", 
      "pbrMetallicRoughness": {
        "baseColorFactor": [
          0.3922, 
          0.5882, 
          0.4314, 
          1.0
        ], 
        "metallicFactor": 0.1, 
        "roughnessFactor": 0.7
      }
    }, 
    {
      "alphaCutoff": 1.0, 
      "alphaMode": "BLEND", 
      "pbrMetallicRoughness": {
        "baseColorFactor": [
          0.3922, 
          1.0, 
          0.2745, 
          1.0
        ], 
        "metallicFactor": 0.1, 
        "roughnessFactor": 0.7
      }
    }
  ], 
  "meshes": [
    {
      "name": "out-right", 
      "primitives": [
        {
          "attributes": {
            "POSITION": 0
          }, 
          "indices": 1, 
          "material": 0, 
          "mode": 4
        }
      ]
    }, 
    {
      "name": "out-bottom", 
      "primitives": [
        {
          "attributes": {
            "POSITION": 2
          }, 
          "indices": 3, 
          "material": 1, 
          "mode": 4
        }
      ]
    }, 
    {
      "name": "out-front", 
      "primitives": [
        {
          "attributes": {
            "POSITION": 4
          }, 
          "indices": 5, 
          "material": 2, 
          "mode": 4
        }
      ]
    }, 
    {
      "name": "out-top", 
      "primitives": [
        {
          "attributes": {
            "POSITION": 6
          }, 
          "indices": 7, 
          "material": 3, 
          "mode": 4
        }
      ]
    }, 
    {
      "name": "out-back", 
      "primitives": [
        {
          "attributes": {
            "POSITION": 8
          }, 
          "indices": 9, 
          "material": 4, 
          "mode": 4
        }
      ]
    }, 
    {
      "name": "out-left", 
      "primitives": [
        {
          "attributes": {
            "POSITION": 10
          }, 
          "indices": 11, 
          "material": 5, 
          "mode": 4
        }
      ]
    }
  ], 
  "nodes": [
    {
      "children": [
        1
      ], 
      "matrix": [
        0.001, 
        0.0, 
        0.0, 
        0.0, 
        0.0, 
        0.0, 
        -0.001, 
        0.0, 
        0.0, 
        0.001, 
        0.0, 
        0.0, 
        0.0, 
        0.0, 
        0.0, 
        1.0
      ]
    }, 
    {
      "children": [
        2, 
        3, 
        4, 
        5, 
        6, 
        7
      ], 
      "matrix": [
        1.0, 
        0.0, 
        0.0, 
        0.0, 
        0.0, 
        1.0, 
        0.0, 
        0.0, 
        0.0, 
        0.0, 
        1.0, 
        0.0, 
        0.0, 
        0.0, 
        0.0, 
        1.0
      ], 
      "name": "out"
    }, 
    {
      "matrix": [
        -1.0, 
        -0.0, 
        -0.0, 
        -0.0, 
        -0.0, 
        -0.0, 
        -1.0, 
        -0.0, 
        -0.0, 
        -1.0, 
        -0.0, 
        -0.0, 
        0.0, 
        53.0, 
        28.0, 
        1.0
      ], 
      "mesh": 0, 
      "name": "out-right"
    }, 
    {
      "matrix": [
        1.0, 
        0.0, 
        0.0, 
        0.0, 
        0.0, 
        1.0, 
        0.0, 
        0.0, 
        0.0, 
        0.0, 
        1.0, 
        0.0, 
        0.0, 
        0.0, 
        3.0, 
        1.0
      ], 
      "mesh": 1, 
      "name": "out-bottom"
    }, 
    {
      "matrix": [
        0.0, 
        0.0, 
        1.0, 
        0.0, 
        -0.0, 
        -1.0, 
        -0.0, 
        -0.0, 
        1.0, 
        0.0, 
        0.0, 
        0.0, 
        47.0, 
        0.0, 
        28.0, 
        1.0
      ], 
      "mesh": 2, 
      "name": "out-front"
    }, 
    {
      "matrix": [
        1.0, 
        0.0, 
        0.0, 
        0.0, 
        0.0, 
        -1.0, 
        0.0, 
        0.0, 
        0.0, 
        0.0, 
        -1.0, 
        0.0, 
        0.0, 
        -0.75, 
        53.0, 
        1.0
      ], 
      "mesh": 3, 
      "name": "out-top"
    }, 
    {
      "matrix": [
        0.0, 
        0.0, 
        1.0, 
        0.0, 
        -0.0, 
        -1.0, 
        -0.0, 
        -0.0, 
        1.0, 
        0.0, 
        0.0, 
        0.0, 
        -50.0, 
        0.0, 
        26.5, 
        1.0
      ], 
      "mesh": 4, 
      "name": "out-back"
    }, 
    {
      "matrix": [
        1.0, 
        0.0, 
        0.0, 
        0.0, 
        0.0, 
        0.0, 
        -1.0, 
        0.0, 
        0.0, 
        1.0, 
        0.0, 
        0.0, 
        0.0, 
        -53.0, 
        28.0, 
        1.0
      ], 
      "mesh": 5, 
      "name": "out-left"
    }
  ], 
  "scene": 0, 
  "scenes": [
    {
      "nodes": [
        0
      ]
    }
  ]
}