{
  "accessors": [
    {
      "bufferView": 0, 
      "byteOffset": 0, 
      "componentType": 5126, 
      "count": 1112, 
      "max": [
        43.28000000000001, 
        27.405000000000005, 
        0.6
      ], 
      "min": [
        -43.28, 
        -27.405000000000005, 
        -0.6
      ], 
      "type": "VEC3"
    }, 
    {
      "bufferView": 1, 
      "byteOffset": 0, 
      "componentType": 5123, 
      "count": 11100, 
      "type": "SCALAR"
    }
  ], 
  "asset": {
    "generator": "cqparts_0.2.2.dev1", 
    "version": "2.0"
  }, 
  "bufferViews": [
    {
      "buffer": 0, 
      "byteLength": 13344, 
      "byteOffset": 0, 
      "byteStride": 12, 
      "target": 34962
    }, 
    {
      "buffer": 0, 
      "byteLength": 22200, 
      "byteOffset": 13344, 
      "target": 34963
    }
  ], 
  "buffers": [
    {
      "byteLength": 35544, 
      "uri": "out.bin"
    }
  ], 
  "materials": [
    {
      "alphaCutoff": 1.0, 
      "alphaMode": "BLEND", 
      "pbrMetallicRoughness": {
        "baseColorFactor": [
          0.0392, 
          0.3922, 
          0.0392, 
          1.0
        ], 
        "metallicFactor": 0.1, 
        "roughnessFactor": 0.7
      }
    }
  ], 
  "meshes": [
    {
      "name": "out", 
      "primitives": [
        {
          "attributes": {
            "POSITION": 0
          }, 
          "indices": 1, 
          "material": 0, 
          "mode": 4
        }
      ]
    }
  ], 
  "nodes": [
    {
      "children": [
        1
      ], 
      "matrix": [
        0.001, 
        0.0, 
        0.0, 
        0.0, 
        0.0, 
        0.0, 
        -0.001, 
        0.0, 
        0.0, 
        0.001, 
        0.0, 
        0.0, 
        0.0, 
        0.0, 
        0.0, 
        1.0
      ]
    }, 
    {
      "matrix": [
        1.0, 
        0.0, 
        0.0, 
        0.0, 
        0.0, 
        1.0, 
        0.0, 
        0.0, 
        0.0, 
        0.0, 
        1.0, 
        0.0, 
        0.0, 
        0.0, 
        0.0, 
        1.0
      ], 
      "mesh": 0, 
      "name": "out"
    }
  ], 
  "scene": 0, 
  "scenes": [
    {
      "nodes": [
        0
      ]
    }
  ]
}