{
  "accessors": [
    {
      "bufferView": 0, 
      "byteOffset": 0, 
      "componentType": 5126, 
      "count": 2512, 
      "max": [
        20.1, 
        20.1, 
        3.1
      ], 
      "min": [
        -20.1, 
        -20.1, 
        -0.1
      ], 
      "type": "VEC3"
    }, 
    {
      "bufferView": 1, 
      "byteOffset": 0, 
      "componentType": 5123, 
      "count": 15108, 
      "type": "SCALAR"
    }, 
    {
      "bufferView": 2, 
      "byteOffset": 0, 
      "componentType": 5126, 
      "count": 412, 
      "max": [
        4.7188021535170055, 
        4.1, 
        3.1
      ], 
      "min": [
        -4.7188021535170055, 
        -4.1000000000000005, 
        -15.1
      ], 
      "type": "VEC3"
    }, 
    {
      "bufferView": 3, 
      "byteOffset": 0, 
      "componentType": 5123, 
      "count": 2460, 
      "type": "SCALAR"
    }, 
    {
      "bufferView": 4, 
      "byteOffset": 0, 
      "componentType": 5126, 
      "count": 412, 
      "max": [
        4.7188021535170055, 
        4.1, 
        3.1
      ], 
      "min": [
        -4.7188021535170055, 
        -4.1000000000000005, 
        -15.1
      ], 
      "type": "VEC3"
    }, 
    {
      "bufferView": 5, 
      "byteOffset": 0, 
      "componentType": 5123, 
      "count": 2460, 
      "type": "SCALAR"
    }, 
    {
      "bufferView": 6, 
      "byteOffset": 0, 
      "componentType": 5126, 
      "count": 412, 
      "max": [
        4.7188021535170055, 
        4.1, 
        3.1
      ], 
      "min": [
        -4.7188021535170055, 
        -4.1000000000000005, 
        -15.1
      ], 
      "type": "VEC3"
    }, 
    {
      "bufferView": 7, 
      "byteOffset": 0, 
      "componentType": 5123, 
      "count": 2460, 
      "type": "SCALAR"
    }, 
    {
      "bufferView": 8, 
      "byteOffset": 0, 
      "componentType": 5126, 
      "count": 286, 
      "max": [
        2.6, 
        2.5987155405017197, 
        24.1
      ], 
      "min": [
        -2.6, 
        -2.5987155405017197, 
        -0.1
      ], 
      "type": "VEC3"
    }, 
    {
      "bufferView": 9, 
      "byteOffset": 0, 
      "componentType": 5123, 
      "count": 1704, 
      "type": "SCALAR"
    }, 
    {
      "bufferView": 10, 
      "byteOffset": 0, 
      "componentType": 5126, 
      "count": 16, 
      "max": [
        19.75, 
        19.75, 
        16.76666666666667
      ], 
      "min": [
        -19.75, 
        -19.75, 
        -16.76666666666667
      ], 
      "type": "VEC3"
    }, 
    {
      "bufferView": 11, 
      "byteOffset": 0, 
      "componentType": 5121, 
      "count": 84, 
      "type": "SCALAR"
    }, 
    {
      "bufferView": 12, 
      "byteOffset": 0, 
      "componentType": 5126, 
      "count": 1256, 
      "max": [
        21.25, 
        21.25, 
        6.266666666666667
      ], 
      "min": [
        -21.25, 
        -21.25, 
        -4.266666666666667
      ], 
      "type": "VEC3"
    }, 
    {
      "bufferView": 13, 
      "byteOffset": 0, 
      "componentType": 5123, 
      "count": 7572, 
      "type": "SCALAR"
    }, 
    {
      "bufferView": 14, 
      "byteOffset": 0, 
      "componentType": 5126, 
      "count": 624, 
      "max": [
        21.25, 
        21.25, 
        4.266666666666667
      ], 
      "min": [
        -21.25, 
        -21.25, 
        -4.266666666666667
      ], 
      "type": "VEC3"
    }, 
    {
      "bufferView": 15, 
      "byteOffset": 0, 
      "componentType": 5123, 
      "count": 3780, 
      "type": "SCALAR"
    }, 
    {
      "bufferView": 16, 
      "byteOffset": 0, 
      "componentType": 5126, 
      "count": 412, 
      "max": [
        4.7188021535170055, 
        4.1, 
        3.1
      ], 
      "min": [
        -4.7188021535170055, 
        -4.1000000000000005, 
        -15.1
      ], 
      "type": "VEC3"
    }, 
    {
      "bufferView": 17, 
      "byteOffset": 0, 
      "componentType": 5123, 
      "count": 2460, 
      "type": "SCALAR"
    }, 
    {
      "bufferView": 18, 
      "byteOffset": 0, 
      "componentType": 5126, 
      "count": 578, 
      "max": [
        2.35, 
        2.348743518393073, 
        0.1
      ], 
      "min": [
        -2.35, 
        -2.348743518393073, 
        -10.1
      ], 
      "type": "VEC3"
    }, 
    {
      "bufferView": 19, 
      "byteOffset": 0, 
      "componentType": 5123, 
      "count": 3456, 
      "type": "SCALAR"
    }, 
    {
      "bufferView": 20, 
      "byteOffset": 0, 
      "componentType": 5126, 
      "count": 578, 
      "max": [
        2.35, 
        2.348743518393073, 
        0.1
      ], 
      "min": [
        -2.35, 
        -2.348743518393073, 
        -10.1
      ], 
      "type": "VEC3"
    }, 
    {
      "bufferView": 21, 
      "byteOffset": 0, 
      "componentType": 5123, 
      "count": 3456, 
      "type": "SCALAR"
    }, 
    {
      "bufferView": 22, 
      "byteOffset": 0, 
      "componentType": 5126, 
      "count": 578, 
      "max": [
        2.35, 
        2.348743518393073, 
        0.1
      ], 
      "min": [
        -2.35, 
        -2.348743518393073, 
        -10.1
      ], 
      "type": "VEC3"
    }, 
    {
      "bufferView": 23, 
      "byteOffset": 0, 
      "componentType": 5123, 
      "count": 3456, 
      "type": "SCALAR"
    }, 
    {
      "bufferView": 24, 
      "byteOffset": 0, 
      "componentType": 5126, 
      "count": 1336, 
      "max": [
        10.1, 
        10.09874127673875, 
        0.1
      ], 
      "min": [
        -10.1, 
        -10.09874127673875, 
        -8.1
      ], 
      "type": "VEC3"
    }, 
    {
      "bufferView": 25, 
      "byteOffset": 0, 
      "componentType": 5123, 
      "count": 8064, 
      "type": "SCALAR"
    }, 
    {
      "bufferView": 26, 
      "byteOffset": 0, 
      "componentType": 5126, 
      "count": 578, 
      "max": [
        2.35, 
        2.348743518393073, 
        0.1
      ], 
      "min": [
        -2.35, 
        -2.348743518393073, 
        -10.1
      ], 
      "type": "VEC3"
    }, 
    {
      "bufferView": 27, 
      "byteOffset": 0, 
      "componentType": 5123, 
      "count": 3456, 
      "type": "SCALAR"
    }
  ], 
  "asset": {
    "generator": "cqparts_0.2.2.dev1", 
    "version": "2.0"
  }, 
  "bufferViews": [
    {
      "buffer": 0, 
      "byteLength": 30144, 
      "byteOffset": 0, 
      "byteStride": 12, 
      "target": 34962
    }, 
    {
      "buffer": 0, 
      "byteLength": 30216, 
      "byteOffset": 30144, 
      "target": 34963
    }, 
    {
      "buffer": 1, 
      "byteLength": 4944, 
      "byteOffset": 0, 
      "byteStride": 12, 
      "target": 34962
    }, 
    {
      "buffer": 1, 
      "byteLength": 4920, 
      "byteOffset": 4944, 
      "target": 34963
    }, 
    {
      "buffer": 2, 
      "byteLength": 4944, 
      "byteOffset": 0, 
      "byteStride": 12, 
      "target": 34962
    }, 
    {
      "buffer": 2, 
      "byteLength": 4920, 
      "byteOffset": 4944, 
      "target": 34963
    }, 
    {
      "buffer": 3, 
      "byteLength": 4944, 
      "byteOffset": 0, 
      "byteStride": 12, 
      "target": 34962
    }, 
    {
      "buffer": 3, 
      "byteLength": 4920, 
      "byteOffset": 4944, 
      "target": 34963
    }, 
    {
      "buffer": 4, 
      "byteLength": 3432, 
      "byteOffset": 0, 
      "byteStride": 12, 
      "target": 34962
    }, 
    {
      "buffer": 4, 
      "byteLength": 3408, 
      "byteOffset": 3432, 
      "target": 34963
    }, 
    {
      "buffer": 5, 
      "byteLength": 192, 
      "byteOffset": 0, 
      "byteStride": 12, 
      "target": 34962
    }, 
    {
      "buffer": 5, 
      "byteLength": 84, 
      "byteOffset": 192, 
      "target": 34963
    }, 
    {
      "buffer": 6, 
      "byteLength": 15072, 
      "byteOffset": 0, 
      "byteStride": 12, 
      "target": 34962
    }, 
    {
      "buffer": 6, 
      "byteLength": 15144, 
      "byteOffset": 15072, 
      "target": 34963
    }, 
    {
      "buffer": 7, 
      "byteLength": 7488, 
      "byteOffset": 0, 
      "byteStride": 12, 
      "target": 34962
    }, 
    {
      "buffer": 7, 
      "byteLength": 7560, 
      "byteOffset": 7488, 
      "target": 34963
    }, 
    {
      "buffer": 8, 
      "byteLength": 4944, 
      "byteOffset": 0, 
      "byteStride": 12, 
      "target": 34962
    }, 
    {
      "buffer": 8, 
      "byteLength": 4920, 
      "byteOffset": 4944, 
      "target": 34963
    }, 
    {
      "buffer": 9, 
      "byteLength": 6936, 
      "byteOffset": 0, 
      "byteStride": 12, 
      "target": 34962
    }, 
    {
      "buffer": 9, 
      "byteLength": 6912, 
      "byteOffset": 6936, 
      "target": 34963
    }, 
    {
      "buffer": 10, 
      "byteLength": 6936, 
      "byteOffset": 0, 
      "byteStride": 12, 
      "target": 34962
    }, 
    {
      "buffer": 10, 
      "byteLength": 6912, 
      "byteOffset": 6936, 
      "target": 34963
    }, 
    {
      "buffer": 11, 
      "byteLength": 6936, 
      "byteOffset": 0, 
      "byteStride": 12, 
      "target": 34962
    }, 
    {
      "buffer": 11, 
      "byteLength": 6912, 
      "byteOffset": 6936, 
      "target": 34963
    }, 
    {
      "buffer": 12, 
      "byteLength": 16032, 
      "byteOffset": 0, 
      "byteStride": 12, 
      "target": 34962
    }, 
    {
      "buffer": 12, 
      "byteLength": 16128, 
      "byteOffset": 16032, 
      "target": 34963
    }, 
    {
      "buffer": 13, 
      "byteLength": 6936, 
      "byteOffset": 0, 
      "byteStride": 12, 
      "target": 34962
    }, 
    {
      "buffer": 13, 
      "byteLength": 6912, 
      "byteOffset": 6936, 
      "target": 34963
    }
  ], 
  "buffers": [
    {
      "byteLength": 60360, 
      "uri": "out-disc.bin"
    }, 
    {
      "byteLength": 9864, 
      "uri": "out-motor-screw_000.bin"
    }, 
    {
      "byteLength": 9864, 
      "uri": "out-motor-screw_001.bin"
    }, 
    {
      "byteLength": 9864, 
      "uri": "out-motor-screw_002.bin"
    }, 
    {
      "byteLength": 6840, 
      "uri": "out-motor-base-shaft.bin"
    }, 
    {
      "byteLength": 276, 
      "uri": "out-motor-base-stator.bin"
    }, 
    {
      "byteLength": 30216, 
      "uri": "out-motor-base-topcap.bin"
    }, 
    {
      "byteLength": 15048, 
      "uri": "out-motor-base-botcap.bin"
    }, 
    {
      "byteLength": 9864, 
      "uri": "out-motor-screw_003.bin"
    }, 
    {
      "byteLength": 13848, 
      "uri": "out-boss-screw_000.bin"
    }, 
    {
      "byteLength": 13848, 
      "uri": "out-boss-screw_001.bin"
    }, 
    {
      "byteLength": 13848, 
      "uri": "out-boss-screw_002.bin"
    }, 
    {
      "byteLength": 32160, 
      "uri": "out-boss-base.bin"
    }, 
    {
      "byteLength": 13848, 
      "uri": "out-boss-screw_003.bin"
    }
  ], 
  "materials": [
    {
      "alphaCutoff": 1.0, 
      "alphaMode": "BLEND", 
      "pbrMetallicRoughness": {
        "baseColorFactor": [
          0.3922, 
          0.3922, 
          0.2745, 
          1.0
        ], 
        "metallicFactor": 0.1, 
        "roughnessFactor": 0.7
      }
    }, 
    {
      "alphaCutoff": 1.0, 
      "alphaMode": "BLEND", 
      "pbrMetallicRoughness": {
        "baseColorFactor": [
          0.7529, 
          0.7529, 
          0.7529, 
          1.0
        ], 
        "metallicFactor": 0.1, 
        "roughnessFactor": 0.7
      }
    }, 
    {
      "alphaCutoff": 1.0, 
      "alphaMode": "BLEND", 
      "pbrMetallicRoughness": {
        "baseColorFactor": [
          0.7529, 
          0.7529, 
          0.7529, 
          1.0
        ], 
        "metallicFactor": 0.1, 
        "roughnessFactor": 0.7
      }
    }, 
    {
      "alphaCutoff": 1.0, 
      "alphaMode": "BLEND", 
      "pbrMetallicRoughness": {
        "baseColorFactor": [
          0.7529, 
          0.7529, 
          0.7529, 
          1.0
        ], 
        "metallicFactor": 0.1, 
        "roughnessFactor": 0.7
      }
    }, 
    {
      "alphaCutoff": 1.0, 
      "alphaMode": "BLEND", 
      "pbrMetallicRoughness": {
        "baseColorFactor": [
          0.1961, 
          1.0, 
          1.0, 
          1.0
        ], 
        "metallicFactor": 0.1, 
        "roughnessFactor": 0.7
      }
    }, 
    {
      "alphaCutoff": 1.0, 
      "alphaMode": "BLEND", 
      "pbrMetallicRoughness": {
        "baseColorFactor": [
          0.1961, 
          0.1961, 
          0.1961, 
          1.0
        ], 
        "metallicFactor": 0.1, 
        "roughnessFactor": 0.7
      }
    }, 
    {
      "alphaCutoff": 1.0, 
      "alphaMode": "BLEND", 
      "pbrMetallicRoughness": {
        "baseColorFactor": [
          0.7529, 
          0.7529, 
          0.7529, 
          1.0
        ], 
        "metallicFactor": 0.1, 
        "roughnessFactor": 0.7
      }
    }, 
    {
      "alphaCutoff": 1.0, 
      "alphaMode": "BLEND", 
      "pbrMetallicRoughness": {
        "baseColorFactor": [
          0.7529, 
          0.7529, 
          0.7529, 
          1.0
        ], 
        "metallicFactor": 0.1, 
        "roughnessFactor": 0.7
      }
    }, 
    {
      "alphaCutoff": 1.0, 
      "alphaMode": "BLEND", 
      "pbrMetallicRoughness": {
        "baseColorFactor": [
          0.7529, 
          0.7529, 
          0.7529, 
          1.0
        ], 
        "metallicFactor": 0.1, 
        "roughnessFactor": 0.7
      }
    }, 
    {
      "alphaCutoff": 1.0, 
      "alphaMode": "BLEND", 
      "pbrMetallicRoughness": {
        "baseColorFactor": [
          0.7529, 
          0.7529, 
          0.7529, 
          1.0
        ], 
        "metallicFactor": 0.1, 
        "roughnessFactor": 0.7
      }
    }, 
    {
      "alphaCutoff": 1.0, 
      "alphaMode": "BLEND", 
      "pbrMetallicRoughness": {
        "baseColorFactor": [
          0.7529, 
          0.7529, 
          0.7529, 
          1.0
        ], 
        "metallicFactor": 0.1, 
        "roughnessFactor": 0.7
      }
    }, 
    {
      "alphaCutoff": 1.0, 
      "alphaMode": "BLEND", 
      "pbrMetallicRoughness": {
        "baseColorFactor": [
          0.7529, 
          0.7529, 
          0.7529, 
          1.0
        ], 
        "metallicFactor": 0.1, 
        "roughnessFactor": 0.7
      }
    }, 
    {
      "alphaCutoff": 1.0, 
      "alphaMode": "BLEND", 
      "pbrMetallicRoughness": {
        "baseColorFactor": [
          0.1961, 
          0.1961, 
          0.1961, 
          1.0
        ], 
        "metallicFactor": 0.1, 
        "roughnessFactor": 0.7
      }
    }, 
    {
      "alphaCutoff": 1.0, 
      "alphaMode": "BLEND", 
      "pbrMetallicRoughness": {
        "baseColorFactor": [
          0.7529, 
          0.7529, 
          0.7529, 
          1.0
        ], 
        "metallicFactor": 0.1, 
        "roughnessFactor": 0.7
      }
    }
  ], 
  "meshes": [
    {
      "name": "out-disc", 
      "primitives": [
        {
          "attributes": {
            "POSITION": 0
          }, 
          "indices": 1, 
          "material": 0, 
          "mode": 4
        }
      ]
    }, 
    {
      "name": "out-motor-screw_000", 
      "primitives": [
        {
          "attributes": {
            "POSITION": 2
          }, 
          "indices": 3, 
          "material": 1, 
          "mode": 4
        }
      ]
    }, 
    {
      "name": "out-motor-screw_001", 
      "primitives": [
        {
          "attributes": {
            "POSITION": 4
          }, 
          "indices": 5, 
          "material": 2, 
          "mode": 4
        }
      ]
    }, 
    {
      "name": "out-motor-screw_002", 
      "primitives": [
        {
          "attributes": {
            "POSITION": 6
          }, 
          "indices": 7, 
          "material": 3, 
          "mode": 4
        }
      ]
    }, 
    {
      "name": "out-motor-base-shaft", 
      "primitives": [
        {
          "attributes": {
            "POSITION": 8
          }, 
          "indices": 9, 
          "material": 4, 
          "mode": 4
        }
      ]
    }, 
    {
      "name": "out-motor-base-stator", 
      "primitives": [
        {
          "attributes": {
            "POSITION": 10
          }, 
          "indices": 11, 
          "material": 5, 
          "mode": 4
        }
      ]
    }, 
    {
      "name": "out-motor-base-topcap", 
      "primitives": [
        {
          "attributes": {
            "POSITION": 12
          }, 
          "indices": 13, 
          "material": 6, 
          "mode": 4
        }
      ]
    }, 
    {
      "name": "out-motor-base-botcap", 
      "primitives": [
        {
          "attributes": {
            "POSITION": 14
          }, 
          "indices": 15, 
          "material": 7, 
          "mode": 4
        }
      ]
    }, 
    {
      "name": "out-motor-screw_003", 
      "primitives": [
        {
          "attributes": {
            "POSITION": 16
          }, 
          "indices": 17, 
          "material": 8, 
          "mode": 4
        }
      ]
    }, 
    {
      "name": "out-boss-screw_000", 
      "primitives": [
        {
          "attributes": {
            "POSITION": 18
          }, 
          "indices": 19, 
          "material": 9, 
          "mode": 4
        }
      ]
    }, 
    {
      "name": "out-boss-screw_001", 
      "primitives": [
        {
          "attributes": {
            "POSITION": 20
          }, 
          "indices": 21, 
          "material": 10, 
          "mode": 4
        }
      ]
    }, 
    {
      "name": "out-boss-screw_002", 
      "primitives": [
        {
          "attributes": {
            "POSITION": 22
          }, 
          "indices": 23, 
          "material": 11, 
          "mode": 4
        }
      ]
    }, 
    {
      "name": "out-boss-base", 
      "primitives": [
        {
          "attributes": {
            "POSITION": 24
          }, 
          "indices": 25, 
          "material": 12, 
          "mode": 4
        }
      ]
    }, 
    {
      "name": "out-boss-screw_003", 
      "primitives": [
        {
          "attributes": {
            "POSITION": 26
          }, 
          "indices": 27, 
          "material": 13, 
          "mode": 4
        }
      ]
    }
  ], 
  "nodes": [
    {
      "children": [
        1
      ], 
      "matrix": [
        0.001, 
        0.0, 
        0.0, 
        0.0, 
        0.0, 
        0.0, 
        -0.001, 
        0.0, 
        0.0, 
        0.001, 
        0.0, 
        0.0, 
        0.0, 
        0.0, 
        0.0, 
        1.0
      ]
    }, 
    {
      "children": [
        2, 
        3, 
        13
      ], 
      "matrix": [
        1.0, 
        0.0, 
        0.0, 
        0.0, 
        0.0, 
        1.0, 
        0.0, 
        0.0, 
        0.0, 
        0.0, 
        1.0, 
        0.0, 
        0.0, 
        0.0, 
        0.0, 
        1.0
      ], 
      "name": "out"
    }, 
    {
      "matrix": [
        1.0, 
        0.0, 
        0.0, 
        0.0, 
        0.0, 
        1.0, 
        0.0, 
        0.0, 
        0.0, 
        0.0, 
        1.0, 
        0.0, 
        0.0, 
        0.0, 
        -3.0, 
        1.0
      ], 
      "mesh": 0, 
      "name": "out-disc"
    }, 
    {
      "children": [
        4, 
        5, 
        6, 
        7, 
        12
      ], 
      "matrix": [
        1.0, 
        0.0, 
        0.0, 
        0.0, 
        0.0, 
        1.0, 
        0.0, 
        0.0, 
        0.0, 
        0.0, 
        1.0, 
        0.0, 
        0.0, 
        0.0, 
        -27.0, 
        1.0
      ], 
      "name": "out-motor"
    }, 
    {
      "matrix": [
        1.0, 
        0.0, 
        0.0, 
        0.0, 
        0.0, 
        1.0, 
        0.0, 
        0.0, 
        0.0, 
        0.0, 
        1.0, 
        0.0, 
        15.5, 
        15.5, 
        6.0, 
        1.0
      ], 
      "mesh": 1, 
      "name": "out-motor-screw_000"
    }, 
    {
      "matrix": [
        1.0, 
        0.0, 
        0.0, 
        0.0, 
        0.0, 
        1.0, 
        0.0, 
        0.0, 
        0.0, 
        0.0, 
        1.0, 
        0.0, 
        -15.5, 
        15.5, 
        6.0, 
        1.0
      ], 
      "mesh": 2, 
      "name": "out-motor-screw_001"
    }, 
    {
      "matrix": [
        1.0, 
        0.0, 
        0.0, 
        0.0, 
        0.0, 
        1.0, 
        0.0, 
        0.0, 
        0.0, 
        0.0, 
        1.0, 
        0.0, 
        15.5, 
        -15.5, 
        6.0, 
        1.0
      ], 
      "mesh": 3, 
      "name": "out-motor-screw_002"
    }, 
    {
      "children": [
        8, 
        9, 
        10, 
        11
      ], 
      "matrix": [
        1.0, 
        0.0, 
        0.0, 
        0.0, 
        0.0, 
        1.0, 
        0.0, 
        0.0, 
        0.0, 
        0.0, 
        1.0, 
        0.0, 
        0.0, 
        0.0, 
        0.0, 
        1.0
      ], 
      "name": "out-motor-base"
    }, 
    {
      "matrix": [
        1.0, 
        0.0, 
        0.0, 
        0.0, 
        0.0, 
        1.0, 
        0.0, 
        0.0, 
        0.0, 
        0.0, 
        1.0, 
        0.0, 
        0.0, 
        0.0, 
        0.0, 
        1.0
      ], 
      "mesh": 4, 
      "name": "out-motor-base-shaft"
    }, 
    {
      "matrix": [
        0.0, 
        -1.0, 
        0.0, 
        0.0, 
        1.0, 
        0.0, 
        0.0, 
        0.0, 
        0.0, 
        0.0, 
        1.0, 
        0.0, 
        0.0, 
        0.0, 
        -25.0, 
        1.0
      ], 
      "mesh": 5, 
      "name": "out-motor-base-stator"
    }, 
    {
      "matrix": [
        0.0, 
        -1.0, 
        0.0, 
        0.0, 
        1.0, 
        0.0, 
        0.0, 
        0.0, 
        0.0, 
        0.0, 
        1.0, 
        0.0, 
        0.0, 
        0.0, 
        -4.166666666666668, 
        1.0
      ], 
      "mesh": 6, 
      "name": "out-motor-base-topcap"
    }, 
    {
      "matrix": [
        1.0, 
        0.0, 
        0.0, 
        0.0, 
        0.0, 
        -1.0, 
        0.0, 
        0.0, 
        0.0, 
        0.0, 
        -1.0, 
        0.0, 
        0.0, 
        0.0, 
        -45.83333333333334, 
        1.0
      ], 
      "mesh": 7, 
      "name": "out-motor-base-botcap"
    }, 
    {
      "matrix": [
        1.0, 
        0.0, 
        0.0, 
        0.0, 
        0.0, 
        1.0, 
        0.0, 
        0.0, 
        0.0, 
        0.0, 
        1.0, 
        0.0, 
        -15.5, 
        -15.5, 
        6.0, 
        1.0
      ], 
      "mesh": 8, 
      "name": "out-motor-screw_003"
    }, 
    {
      "children": [
        14, 
        15, 
        16, 
        17, 
        18
      ], 
      "matrix": [
        1.0, 
        0.0, 
        0.0, 
        0.0, 
        0.0, 
        1.0, 
        0.0, 
        0.0, 
        0.0, 
        0.0, 
        1.0, 
        0.0, 
        0.0, 
        0.0, 
        -3.0, 
        1.0
      ], 
      "name": "out-boss"
    }, 
    {
      "matrix": [
        1.0, 
        0.0, 
        0.0, 
        0.0, 
        0.0, 
        1.0, 
        0.0, 
        0.0, 
        0.0, 
        0.0, 
        1.0, 
        0.0, 
        -1.2858791391047208e-15, 
        -7.0, 
        3.0, 
        1.0
      ], 
      "mesh": 9, 
      "name": "out-boss-screw_000"
    }, 
    {
      "matrix": [
        1.0, 
        0.0, 
        0.0, 
        0.0, 
        0.0, 
        1.0, 
        0.0, 
        0.0, 
        0.0, 
        0.0, 
        1.0, 
        0.0, 
        4.286263797015736e-16, 
        7.0, 
        3.0, 
        1.0
      ], 
      "mesh": 10, 
      "name": "out-boss-screw_001"
    }, 
    {
      "matrix": [
        1.0, 
        0.0, 
        0.0, 
        0.0, 
        0.0, 
        1.0, 
        0.0, 
        0.0, 
        0.0, 
        0.0, 
        1.0, 
        0.0, 
        -7.0, 
        8.572527594031472e-16, 
        3.0, 
        1.0
      ], 
      "mesh": 11, 
      "name": "out-boss-screw_002"
    }, 
    {
      "matrix": [
        1.0, 
        0.0, 
        0.0, 
        0.0, 
        0.0, 
        1.0, 
        0.0, 
        0.0, 
        0.0, 
        0.0, 
        1.0, 
        0.0, 
        0.0, 
        0.0, 
        0.0, 
        1.0
      ], 
      "mesh": 12, 
      "name": "out-boss-base"
    }, 
    {
      "matrix": [
        1.0, 
        0.0, 
        0.0, 
        0.0, 
        0.0, 
        1.0, 
        0.0, 
        0.0, 
        0.0, 
        0.0, 
        1.0, 
        0.0, 
        7.0, 
        0.0, 
        3.0, 
        1.0
      ], 
      "mesh": 13, 
      "name": "out-boss-screw_003"
    }
  ], 
  "scene": 0, 
  "scenes": [
    {
      "nodes": [
        0
      ]
    }
  ]
}