{
  "accessors": [
    {
      "bufferView": 0, 
      "byteOffset": 0, 
      "componentType": 5126, 
      "count": 180, 
      "max": [
        16.1, 
        35.6, 
        3.1
      ], 
      "min": [
        -19.100000000000005, 
        -35.6, 
        -0.1
      ], 
      "type": "VEC3"
    }, 
    {
      "bufferView": 1, 
      "byteOffset": 0, 
      "componentType": 5121, 
      "count": 1044, 
      "type": "SCALAR"
    }, 
    {
      "bufferView": 2, 
      "byteOffset": 0, 
      "componentType": 5126, 
      "count": 350, 
      "max": [
        100.1, 
        17.6, 
        3.1000000000000143
      ], 
      "min": [
        -100.1, 
        -17.6, 
        -0.10000000000001422
      ], 
      "type": "VEC3"
    }, 
    {
      "bufferView": 3, 
      "byteOffset": 0, 
      "componentType": 5123, 
      "count": 2088, 
      "type": "SCALAR"
    }, 
    {
      "bufferView": 4, 
      "byteOffset": 0, 
      "componentType": 5126, 
      "count": 350, 
      "max": [
        100.1, 
        17.6, 
        3.1
      ], 
      "min": [
        -100.1, 
        -17.6, 
        -0.1
      ], 
      "type": "VEC3"
    }, 
    {
      "bufferView": 5, 
      "byteOffset": 0, 
      "componentType": 5123, 
      "count": 2088, 
      "type": "SCALAR"
    }, 
    {
      "bufferView": 6, 
      "byteOffset": 0, 
      "componentType": 5126, 
      "count": 180, 
      "max": [
        16.1, 
        35.6, 
        3.1
      ], 
      "min": [
        -19.100000000000005, 
        -35.6, 
        -0.1
      ], 
      "type": "VEC3"
    }, 
    {
      "bufferView": 7, 
      "byteOffset": 0, 
      "componentType": 5121, 
      "count": 1044, 
      "type": "SCALAR"
    }, 
    {
      "bufferView": 8, 
      "byteOffset": 0, 
      "componentType": 5126, 
      "count": 242, 
      "max": [
        100.1, 
        35.6, 
        3.1000000000000036
      ], 
      "min": [
        -100.1, 
        -35.600000000000016, 
        -0.10000000000000356
      ], 
      "type": "VEC3"
    }, 
    {
      "bufferView": 9, 
      "byteOffset": 0, 
      "componentType": 5121, 
      "count": 1380, 
      "type": "SCALAR"
    }, 
    {
      "bufferView": 10, 
      "byteOffset": 0, 
      "componentType": 5126, 
      "count": 84, 
      "max": [
        14.1, 
        32.1, 
        3.1
      ], 
      "min": [
        -17.100000000000005, 
        -32.1, 
        -0.1
      ], 
      "type": "VEC3"
    }, 
    {
      "bufferView": 11, 
      "byteOffset": 0, 
      "componentType": 5121, 
      "count": 468, 
      "type": "SCALAR"
    }, 
    {
      "bufferView": 12, 
      "byteOffset": 0, 
      "componentType": 5126, 
      "count": 80, 
      "max": [
        96.6, 
        15.6, 
        3.1000000000000107
      ], 
      "min": [
        -96.6, 
        -15.6, 
        -0.10000000000000711
      ], 
      "type": "VEC3"
    }, 
    {
      "bufferView": 13, 
      "byteOffset": 0, 
      "componentType": 5121, 
      "count": 468, 
      "type": "SCALAR"
    }, 
    {
      "bufferView": 14, 
      "byteOffset": 0, 
      "componentType": 5126, 
      "count": 80, 
      "max": [
        96.6, 
        15.6, 
        3.1
      ], 
      "min": [
        -96.6, 
        -15.6, 
        -0.1
      ], 
      "type": "VEC3"
    }, 
    {
      "bufferView": 15, 
      "byteOffset": 0, 
      "componentType": 5121, 
      "count": 468, 
      "type": "SCALAR"
    }, 
    {
      "bufferView": 16, 
      "byteOffset": 0, 
      "componentType": 5126, 
      "count": 84, 
      "max": [
        14.1, 
        32.1, 
        3.1
      ], 
      "min": [
        -17.100000000000005, 
        -32.1, 
        -0.1
      ], 
      "type": "VEC3"
    }, 
    {
      "bufferView": 17, 
      "byteOffset": 0, 
      "componentType": 5121, 
      "count": 468, 
      "type": "SCALAR"
    }, 
    {
      "bufferView": 18, 
      "byteOffset": 0, 
      "componentType": 5126, 
      "count": 108, 
      "max": [
        96.6, 
        32.1, 
        3.1000000000000036
      ], 
      "min": [
        -96.6, 
        -32.10000000000001, 
        -0.10000000000000356
      ], 
      "type": "VEC3"
    }, 
    {
      "bufferView": 19, 
      "byteOffset": 0, 
      "componentType": 5121, 
      "count": 612, 
      "type": "SCALAR"
    }
  ], 
  "asset": {
    "generator": "cqparts_0.2.2.dev1", 
    "version": "2.0"
  }, 
  "bufferViews": [
    {
      "buffer": 0, 
      "byteLength": 2160, 
      "byteOffset": 0, 
      "byteStride": 12, 
      "target": 34962
    }, 
    {
      "buffer": 0, 
      "byteLength": 1044, 
      "byteOffset": 2160, 
      "target": 34963
    }, 
    {
      "buffer": 1, 
      "byteLength": 4200, 
      "byteOffset": 0, 
      "byteStride": 12, 
      "target": 34962
    }, 
    {
      "buffer": 1, 
      "byteLength": 4176, 
      "byteOffset": 4200, 
      "target": 34963
    }, 
    {
      "buffer": 2, 
      "byteLength": 4200, 
      "byteOffset": 0, 
      "byteStride": 12, 
      "target": 34962
    }, 
    {
      "buffer": 2, 
      "byteLength": 4176, 
      "byteOffset": 4200, 
      "target": 34963
    }, 
    {
      "buffer": 3, 
      "byteLength": 2160, 
      "byteOffset": 0, 
      "byteStride": 12, 
      "target": 34962
    }, 
    {
      "buffer": 3, 
      "byteLength": 1044, 
      "byteOffset": 2160, 
      "target": 34963
    }, 
    {
      "buffer": 4, 
      "byteLength": 2904, 
      "byteOffset": 0, 
      "byteStride": 12, 
      "target": 34962
    }, 
    {
      "buffer": 4, 
      "byteLength": 1380, 
      "byteOffset": 2904, 
      "target": 34963
    }, 
    {
      "buffer": 5, 
      "byteLength": 1008, 
      "byteOffset": 0, 
      "byteStride": 12, 
      "target": 34962
    }, 
    {
      "buffer": 5, 
      "byteLength": 468, 
      "byteOffset": 1008, 
      "target": 34963
    }, 
    {
      "buffer": 6, 
      "byteLength": 960, 
      "byteOffset": 0, 
      "byteStride": 12, 
      "target": 34962
    }, 
    {
      "buffer": 6, 
      "byteLength": 468, 
      "byteOffset": 960, 
      "target": 34963
    }, 
    {
      "buffer": 7, 
      "byteLength": 960, 
      "byteOffset": 0, 
      "byteStride": 12, 
      "target": 34962
    }, 
    {
      "buffer": 7, 
      "byteLength": 468, 
      "byteOffset": 960, 
      "target": 34963
    }, 
    {
      "buffer": 8, 
      "byteLength": 1008, 
      "byteOffset": 0, 
      "byteStride": 12, 
      "target": 34962
    }, 
    {
      "buffer": 8, 
      "byteLength": 468, 
      "byteOffset": 1008, 
      "target": 34963
    }, 
    {
      "buffer": 9, 
      "byteLength": 1296, 
      "byteOffset": 0, 
      "byteStride": 12, 
      "target": 34962
    }, 
    {
      "buffer": 9, 
      "byteLength": 612, 
      "byteOffset": 1296, 
      "target": 34963
    }
  ], 
  "buffers": [
    {
      "byteLength": 3204, 
      "uri": "out-top-front.bin"
    }, 
    {
      "byteLength": 8376, 
      "uri": "out-top-left.bin"
    }, 
    {
      "byteLength": 8376, 
      "uri": "out-top-right.bin"
    }, 
    {
      "byteLength": 3204, 
      "uri": "out-top-back.bin"
    }, 
    {
      "byteLength": 4284, 
      "uri": "out-top-bottom.bin"
    }, 
    {
      "byteLength": 1476, 
      "uri": "out-bottom-front.bin"
    }, 
    {
      "byteLength": 1428, 
      "uri": "out-bottom-left.bin"
    }, 
    {
      "byteLength": 1428, 
      "uri": "out-bottom-right.bin"
    }, 
    {
      "byteLength": 1476, 
      "uri": "out-bottom-back.bin"
    }, 
    {
      "byteLength": 1908, 
      "uri": "out-bottom-bottom.bin"
    }
  ], 
  "materials": [
    {
      "alphaCutoff": 1.0, 
      "alphaMode": "BLEND", 
      "pbrMetallicRoughness": {
        "baseColorFactor": [
          0.3922, 
          0.5882, 
          0.4314, 
          1.0
        ], 
        "metallicFactor": 0.1, 
        "roughnessFactor": 0.7
      }
    }, 
    {
      "alphaCutoff": 1.0, 
      "alphaMode": "BLEND", 
      "pbrMetallicRoughness": {
        "baseColorFactor": [
          0.3922, 
          1.0, 
          0.2745, 
          1.0
        ], 
        "metallicFactor": 0.1, 
        "roughnessFactor": 0.7
      }
    }, 
    {
      "alphaCutoff": 1.0, 
      "alphaMode": "BLEND", 
      "pbrMetallicRoughness": {
        "baseColorFactor": [
          0.3922, 
          1.0, 
          0.2745, 
          1.0
        ], 
        "metallicFactor": 0.1, 
        "roughnessFactor": 0.7
      }
    }, 
    {
      "alphaCutoff": 1.0, 
      "alphaMode": "BLEND", 
      "pbrMetallicRoughness": {
        "baseColorFactor": [
          0.3922, 
          0.5882, 
          0.4314, 
          1.0
        ], 
        "metallicFactor": 0.1, 
        "roughnessFactor": 0.7
      }
    }, 
    {
      "alphaCutoff": 1.0, 
      "alphaMode": "BLEND", 
      "pbrMetallicRoughness": {
        "baseColorFactor": [
          0.3922, 
          0.5882, 
          0.2745, 
          1.0
        ], 
        "metallicFactor": 0.1, 
        "roughnessFactor": 0.7
      }
    }, 
    {
      "alphaCutoff": 1.0, 
      "alphaMode": "BLEND", 
      "pbrMetallicRoughness": {
        "baseColorFactor": [
          0.3922, 
          0.5882, 
          0.4314, 
          1.0
        ], 
        "metallicFactor": 0.1, 
        "roughnessFactor": 0.7
      }
    }, 
    {
      "alphaCutoff": 1.0, 
      "alphaMode": "BLEND", 
      "pbrMetallicRoughness": {
        "baseColorFactor": [
          0.3922, 
          1.0, 
          0.2745, 
          1.0
        ], 
        "metallicFactor": 0.1, 
        "roughnessFactor": 0.7
      }
    }, 
    {
      "alphaCutoff": 1.0, 
      "alphaMode": "BLEND", 
      "pbrMetallicRoughness": {
        "baseColorFactor": [
          0.3922, 
          1.0, 
          0.2745, 
          1.0
        ], 
        "metallicFactor": 0.1, 
        "roughnessFactor": 0.7
      }
    }, 
    {
      "alphaCutoff": 1.0, 
      "alphaMode": "BLEND", 
      "pbrMetallicRoughness": {
        "baseColorFactor": [
          0.3922, 
          0.5882, 
          0.4314, 
          1.0
        ], 
        "metallicFactor": 0.1, 
        "roughnessFactor": 0.7
      }
    }, 
    {
      "alphaCutoff": 1.0, 
      "alphaMode": "BLEND", 
      "pbrMetallicRoughness": {
        "baseColorFactor": [
          0.3922, 
          0.5882, 
          0.2745, 
          1.0
        ], 
        "metallicFactor": 0.1, 
        "roughnessFactor": 0.7
      }
    }
  ], 
  "meshes": [
    {
      "name": "out-top-front", 
      "primitives": [
        {
          "attributes": {
            "POSITION": 0
          }, 
          "indices": 1, 
          "material": 0, 
          "mode": 4
        }
      ]
    }, 
    {
      "name": "out-top-left", 
      "primitives": [
        {
          "attributes": {
            "POSITION": 2
          }, 
          "indices": 3, 
          "material": 1, 
          "mode": 4
        }
      ]
    }, 
    {
      "name": "out-top-right", 
      "primitives": [
        {
          "attributes": {
            "POSITION": 4
          }, 
          "indices": 5, 
          "material": 2, 
          "mode": 4
        }
      ]
    }, 
    {
      "name": "out-top-back", 
      "primitives": [
        {
          "attributes": {
            "POSITION": 6
          }, 
          "indices": 7, 
          "material": 3, 
          "mode": 4
        }
      ]
    }, 
    {
      "name": "out-top-bottom", 
      "primitives": [
        {
          "attributes": {
            "POSITION": 8
          }, 
          "indices": 9, 
          "material": 4, 
          "mode": 4
        }
      ]
    }, 
    {
      "name": "out-bottom-front", 
      "primitives": [
        {
          "attributes": {
            "POSITION": 10
          }, 
          "indices": 11, 
          "material": 5, 
          "mode": 4
        }
      ]
    }, 
    {
      "name": "out-bottom-left", 
      "primitives": [
        {
          "attributes": {
            "POSITION": 12
          }, 
          "indices": 13, 
          "material": 6, 
          "mode": 4
        }
      ]
    }, 
    {
      "name": "out-bottom-right", 
      "primitives": [
        {
          "attributes": {
            "POSITION": 14
          }, 
          "indices": 15, 
          "material": 7, 
          "mode": 4
        }
      ]
    }, 
    {
      "name": "out-bottom-back", 
      "primitives": [
        {
          "attributes": {
            "POSITION": 16
          }, 
          "indices": 17, 
          "material": 8, 
          "mode": 4
        }
      ]
    }, 
    {
      "name": "out-bottom-bottom", 
      "primitives": [
        {
          "attributes": {
            "POSITION": 18
          }, 
          "indices": 19, 
          "material": 9, 
          "mode": 4
        }
      ]
    }
  ], 
  "nodes": [
    {
      "children": [
        1
      ], 
      "matrix": [
        0.001, 
        0.0, 
        0.0, 
        0.0, 
        0.0, 
        0.0, 
        -0.001, 
        0.0, 
        0.0, 
        0.001, 
        0.0, 
        0.0, 
        0.0, 
        0.0, 
        0.0, 
        1.0
      ]
    }, 
    {
      "children": [
        2, 
        8
      ], 
      "matrix": [
        1.0, 
        0.0, 
        0.0, 
        0.0, 
        0.0, 
        1.0, 
        0.0, 
        0.0, 
        0.0, 
        0.0, 
        1.0, 
        0.0, 
        0.0, 
        0.0, 
        0.0, 
        1.0
      ], 
      "name": "out"
    }, 
    {
      "children": [
        3, 
        4, 
        5, 
        6, 
        7
      ], 
      "matrix": [
        1.0, 
        0.0, 
        0.0, 
        0.0, 
        0.0, 
        -1.0, 
        0.0, 
        0.0, 
        0.0, 
        0.0, 
        -1.0, 
        0.0, 
        0.0, 
        0.0, 
        35.0, 
        1.0
      ], 
      "name": "out-top"
    }, 
    {
      "matrix": [
        0.0, 
        0.0, 
        1.0, 
        0.0, 
        -0.0, 
        -1.0, 
        -0.0, 
        -0.0, 
        1.0, 
        0.0, 
        0.0, 
        0.0, 
        97.0, 
        0.0, 
        19.0, 
        1.0
      ], 
      "mesh": 0, 
      "name": "out-top-front"
    }, 
    {
      "matrix": [
        1.0, 
        0.0, 
        0.0, 
        0.0, 
        0.0, 
        0.0, 
        -1.0, 
        0.0, 
        0.0, 
        1.0, 
        0.0, 
        0.0, 
        0.0, 
        -35.5, 
        17.5, 
        1.0
      ], 
      "mesh": 1, 
      "name": "out-top-left"
    }, 
    {
      "matrix": [
        -1.0, 
        -0.0, 
        -0.0, 
        -0.0, 
        -0.0, 
        -0.0, 
        -1.0, 
        -0.0, 
        -0.0, 
        -1.0, 
        -0.0, 
        -0.0, 
        0.0, 
        35.5, 
        17.5, 
        1.0
      ], 
      "mesh": 2, 
      "name": "out-top-right"
    }, 
    {
      "matrix": [
        0.0, 
        0.0, 
        1.0, 
        0.0, 
        -0.0, 
        -1.0, 
        -0.0, 
        -0.0, 
        1.0, 
        0.0, 
        0.0, 
        0.0, 
        -100.0, 
        0.0, 
        19.0, 
        1.0
      ], 
      "mesh": 3, 
      "name": "out-top-back"
    }, 
    {
      "matrix": [
        1.0, 
        0.0, 
        0.0, 
        0.0, 
        0.0, 
        1.0, 
        0.0, 
        0.0, 
        0.0, 
        0.0, 
        1.0, 
        0.0, 
        0.0, 
        0.0, 
        0.0, 
        1.0
      ], 
      "mesh": 4, 
      "name": "out-top-bottom"
    }, 
    {
      "children": [
        9, 
        10, 
        11, 
        12, 
        13
      ], 
      "matrix": [
        1.0, 
        0.0, 
        0.0, 
        0.0, 
        0.0, 
        1.0, 
        0.0, 
        0.0, 
        0.0, 
        0.0, 
        1.0, 
        0.0, 
        0.0, 
        0.0, 
        0.0, 
        1.0
      ], 
      "name": "out-bottom"
    }, 
    {
      "matrix": [
        0.0, 
        0.0, 
        1.0, 
        0.0, 
        -0.0, 
        -1.0, 
        -0.0, 
        -0.0, 
        1.0, 
        0.0, 
        0.0, 
        0.0, 
        93.5, 
        0.0, 
        17.0, 
        1.0
      ], 
      "mesh": 5, 
      "name": "out-bottom-front"
    }, 
    {
      "matrix": [
        1.0, 
        0.0, 
        0.0, 
        0.0, 
        0.0, 
        0.0, 
        -1.0, 
        0.0, 
        0.0, 
        1.0, 
        0.0, 
        0.0, 
        0.0, 
        -32.0, 
        15.5, 
        1.0
      ], 
      "mesh": 6, 
      "name": "out-bottom-left"
    }, 
    {
      "matrix": [
        -1.0, 
        -0.0, 
        -0.0, 
        -0.0, 
        -0.0, 
        -0.0, 
        -1.0, 
        -0.0, 
        -0.0, 
        -1.0, 
        -0.0, 
        -0.0, 
        0.0, 
        32.0, 
        15.5, 
        1.0
      ], 
      "mesh": 7, 
      "name": "out-bottom-right"
    }, 
    {
      "matrix": [
        0.0, 
        0.0, 
        1.0, 
        0.0, 
        -0.0, 
        -1.0, 
        -0.0, 
        -0.0, 
        1.0, 
        0.0, 
        0.0, 
        0.0, 
        -96.5, 
        0.0, 
        17.0, 
        1.0
      ], 
      "mesh": 8, 
      "name": "out-bottom-back"
    }, 
    {
      "matrix": [
        1.0, 
        0.0, 
        0.0, 
        0.0, 
        0.0, 
        1.0, 
        0.0, 
        0.0, 
        0.0, 
        0.0, 
        1.0, 
        0.0, 
        0.0, 
        0.0, 
        0.0, 
        1.0
      ], 
      "mesh": 9, 
      "name": "out-bottom-bottom"
    }
  ], 
  "scene": 0, 
  "scenes": [
    {
      "nodes": [
        0
      ]
    }
  ]
}