{
  "accessors": [
    {
      "bufferView": 0, 
      "byteOffset": 0, 
      "componentType": 5126, 
      "count": 8, 
      "max": [
        5.1, 
        37.6, 
        5.1
      ], 
      "min": [
        -5.1, 
        -37.6, 
        -5.1
      ], 
      "type": "VEC3"
    }, 
    {
      "bufferView": 1, 
      "byteOffset": 0, 
      "componentType": 5121, 
      "count": 36, 
      "type": "SCALAR"
    }, 
    {
      "bufferView": 2, 
      "byteOffset": 0, 
      "componentType": 5126, 
      "count": 8, 
      "max": [
        5.1, 
        37.6, 
        5.1
      ], 
      "min": [
        -5.1, 
        -37.6, 
        -5.1
      ], 
      "type": "VEC3"
    }, 
    {
      "bufferView": 3, 
      "byteOffset": 0, 
      "componentType": 5121, 
      "count": 36, 
      "type": "SCALAR"
    }, 
    {
      "bufferView": 4, 
      "byteOffset": 0, 
      "componentType": 5126, 
      "count": 286, 
      "max": [
        2.6, 
        2.5987155405017197, 
        24.1
      ], 
      "min": [
        -2.6, 
        -2.5987155405017197, 
        -0.1
      ], 
      "type": "VEC3"
    }, 
    {
      "bufferView": 5, 
      "byteOffset": 0, 
      "componentType": 5123, 
      "count": 1704, 
      "type": "SCALAR"
    }, 
    {
      "bufferView": 6, 
      "byteOffset": 0, 
      "componentType": 5126, 
      "count": 16, 
      "max": [
        19.75, 
        19.75, 
        16.76666666666667
      ], 
      "min": [
        -19.75, 
        -19.75, 
        -16.76666666666667
      ], 
      "type": "VEC3"
    }, 
    {
      "bufferView": 7, 
      "byteOffset": 0, 
      "componentType": 5121, 
      "count": 84, 
      "type": "SCALAR"
    }, 
    {
      "bufferView": 8, 
      "byteOffset": 0, 
      "componentType": 5126, 
      "count": 1256, 
      "max": [
        21.25, 
        21.25, 
        6.266666666666667
      ], 
      "min": [
        -21.25, 
        -21.25, 
        -4.266666666666667
      ], 
      "type": "VEC3"
    }, 
    {
      "bufferView": 9, 
      "byteOffset": 0, 
      "componentType": 5123, 
      "count": 7572, 
      "type": "SCALAR"
    }, 
    {
      "bufferView": 10, 
      "byteOffset": 0, 
      "componentType": 5126, 
      "count": 624, 
      "max": [
        21.25, 
        21.25, 
        4.266666666666667
      ], 
      "min": [
        -21.25, 
        -21.25, 
        -4.266666666666667
      ], 
      "type": "VEC3"
    }, 
    {
      "bufferView": 11, 
      "byteOffset": 0, 
      "componentType": 5123, 
      "count": 3780, 
      "type": "SCALAR"
    }, 
    {
      "bufferView": 12, 
      "byteOffset": 0, 
      "componentType": 5126, 
      "count": 460, 
      "max": [
        4.6, 
        4.6, 
        12.1
      ], 
      "min": [
        -4.6, 
        -4.6, 
        -12.1
      ], 
      "type": "VEC3"
    }, 
    {
      "bufferView": 13, 
      "byteOffset": 0, 
      "componentType": 5123, 
      "count": 2760, 
      "type": "SCALAR"
    }, 
    {
      "bufferView": 14, 
      "byteOffset": 0, 
      "componentType": 5126, 
      "count": 286, 
      "max": [
        2.6, 
        2.5987155405017197, 
        150.1
      ], 
      "min": [
        -2.6, 
        -2.5987155405017197, 
        -0.1
      ], 
      "type": "VEC3"
    }, 
    {
      "bufferView": 15, 
      "byteOffset": 0, 
      "componentType": 5123, 
      "count": 1704, 
      "type": "SCALAR"
    }, 
    {
      "bufferView": 16, 
      "byteOffset": 0, 
      "componentType": 5126, 
      "count": 366, 
      "max": [
        4.1, 
        4.1, 
        150.1
      ], 
      "min": [
        -4.1, 
        -4.1, 
        -0.1
      ], 
      "type": "VEC3"
    }, 
    {
      "bufferView": 17, 
      "byteOffset": 0, 
      "componentType": 5123, 
      "count": 2184, 
      "type": "SCALAR"
    }, 
    {
      "bufferView": 18, 
      "byteOffset": 0, 
      "componentType": 5126, 
      "count": 366, 
      "max": [
        4.1, 
        4.1, 
        150.1
      ], 
      "min": [
        -4.1, 
        -4.1, 
        -0.1
      ], 
      "type": "VEC3"
    }, 
    {
      "bufferView": 19, 
      "byteOffset": 0, 
      "componentType": 5123, 
      "count": 2184, 
      "type": "SCALAR"
    }, 
    {
      "bufferView": 20, 
      "byteOffset": 0, 
      "componentType": 5126, 
      "count": 8, 
      "max": [
        5.1, 
        37.6, 
        5.1
      ], 
      "min": [
        -5.1, 
        -37.6, 
        -5.1
      ], 
      "type": "VEC3"
    }, 
    {
      "bufferView": 21, 
      "byteOffset": 0, 
      "componentType": 5121, 
      "count": 36, 
      "type": "SCALAR"
    }
  ], 
  "asset": {
    "generator": "cqparts_0.2.2.dev1", 
    "version": "2.0"
  }, 
  "bufferViews": [
    {
      "buffer": 0, 
      "byteLength": 96, 
      "byteOffset": 0, 
      "byteStride": 12, 
      "target": 34962
    }, 
    {
      "buffer": 0, 
      "byteLength": 36, 
      "byteOffset": 96, 
      "target": 34963
    }, 
    {
      "buffer": 1, 
      "byteLength": 96, 
      "byteOffset": 0, 
      "byteStride": 12, 
      "target": 34962
    }, 
    {
      "buffer": 1, 
      "byteLength": 36, 
      "byteOffset": 96, 
      "target": 34963
    }, 
    {
      "buffer": 2, 
      "byteLength": 3432, 
      "byteOffset": 0, 
      "byteStride": 12, 
      "target": 34962
    }, 
    {
      "buffer": 2, 
      "byteLength": 3408, 
      "byteOffset": 3432, 
      "target": 34963
    }, 
    {
      "buffer": 3, 
      "byteLength": 192, 
      "byteOffset": 0, 
      "byteStride": 12, 
      "target": 34962
    }, 
    {
      "buffer": 3, 
      "byteLength": 84, 
      "byteOffset": 192, 
      "target": 34963
    }, 
    {
      "buffer": 4, 
      "byteLength": 15072, 
      "byteOffset": 0, 
      "byteStride": 12, 
      "target": 34962
    }, 
    {
      "buffer": 4, 
      "byteLength": 15144, 
      "byteOffset": 15072, 
      "target": 34963
    }, 
    {
      "buffer": 5, 
      "byteLength": 7488, 
      "byteOffset": 0, 
      "byteStride": 12, 
      "target": 34962
    }, 
    {
      "buffer": 5, 
      "byteLength": 7560, 
      "byteOffset": 7488, 
      "target": 34963
    }, 
    {
      "buffer": 6, 
      "byteLength": 5520, 
      "byteOffset": 0, 
      "byteStride": 12, 
      "target": 34962
    }, 
    {
      "buffer": 6, 
      "byteLength": 5520, 
      "byteOffset": 5520, 
      "target": 34963
    }, 
    {
      "buffer": 7, 
      "byteLength": 3432, 
      "byteOffset": 0, 
      "byteStride": 12, 
      "target": 34962
    }, 
    {
      "buffer": 7, 
      "byteLength": 3408, 
      "byteOffset": 3432, 
      "target": 34963
    }, 
    {
      "buffer": 8, 
      "byteLength": 4392, 
      "byteOffset": 0, 
      "byteStride": 12, 
      "target": 34962
    }, 
    {
      "buffer": 8, 
      "byteLength": 4368, 
      "byteOffset": 4392, 
      "target": 34963
    }, 
    {
      "buffer": 9, 
      "byteLength": 4392, 
      "byteOffset": 0, 
      "byteStride": 12, 
      "target": 34962
    }, 
    {
      "buffer": 9, 
      "byteLength": 4368, 
      "byteOffset": 4392, 
      "target": 34963
    }, 
    {
      "buffer": 10, 
      "byteLength": 96, 
      "byteOffset": 0, 
      "byteStride": 12, 
      "target": 34962
    }, 
    {
      "buffer": 10, 
      "byteLength": 36, 
      "byteOffset": 96, 
      "target": 34963
    }
  ], 
  "buffers": [
    {
      "byteLength": 132, 
      "uri": "out-carriage-box.bin"
    }, 
    {
      "byteLength": 132, 
      "uri": "out-idle_end-box.bin"
    }, 
    {
      "byteLength": 6840, 
      "uri": "out-drive-stepper-shaft.bin"
    }, 
    {
      "byteLength": 276, 
      "uri": "out-drive-stepper-stator.bin"
    }, 
    {
      "byteLength": 30216, 
      "uri": "out-drive-stepper-topcap.bin"
    }, 
    {
      "byteLength": 15048, 
      "uri": "out-drive-stepper-botcap.bin"
    }, 
    {
      "byteLength": 11040, 
      "uri": "out-drive-coupling.bin"
    }, 
    {
      "byteLength": 6840, 
      "uri": "out-drive-thread.bin"
    }, 
    {
      "byteLength": 8760, 
      "uri": "out-rails-rail_0000.bin"
    }, 
    {
      "byteLength": 8760, 
      "uri": "out-rails-rail_0001.bin"
    }, 
    {
      "byteLength": 132, 
      "uri": "out-drive_end-box.bin"
    }
  ], 
  "materials": [
    {
      "alphaCutoff": 1.0, 
      "alphaMode": "BLEND", 
      "pbrMetallicRoughness": {
        "baseColorFactor": [
          0.7529, 
          0.7529, 
          0.7529, 
          1.0
        ], 
        "metallicFactor": 0.1, 
        "roughnessFactor": 0.7
      }
    }, 
    {
      "alphaCutoff": 1.0, 
      "alphaMode": "BLEND", 
      "pbrMetallicRoughness": {
        "baseColorFactor": [
          0.7529, 
          0.7529, 
          0.7529, 
          1.0
        ], 
        "metallicFactor": 0.1, 
        "roughnessFactor": 0.7
      }
    }, 
    {
      "alphaCutoff": 1.0, 
      "alphaMode": "BLEND", 
      "pbrMetallicRoughness": {
        "baseColorFactor": [
          0.1961, 
          1.0, 
          1.0, 
          1.0
        ], 
        "metallicFactor": 0.1, 
        "roughnessFactor": 0.7
      }
    }, 
    {
      "alphaCutoff": 1.0, 
      "alphaMode": "BLEND", 
      "pbrMetallicRoughness": {
        "baseColorFactor": [
          0.1961, 
          0.1961, 
          0.1961, 
          1.0
        ], 
        "metallicFactor": 0.1, 
        "roughnessFactor": 0.7
      }
    }, 
    {
      "alphaCutoff": 1.0, 
      "alphaMode": "BLEND", 
      "pbrMetallicRoughness": {
        "baseColorFactor": [
          0.7529, 
          0.7529, 
          0.7529, 
          1.0
        ], 
        "metallicFactor": 0.1, 
        "roughnessFactor": 0.7
      }
    }, 
    {
      "alphaCutoff": 1.0, 
      "alphaMode": "BLEND", 
      "pbrMetallicRoughness": {
        "baseColorFactor": [
          0.7529, 
          0.7529, 
          0.7529, 
          1.0
        ], 
        "metallicFactor": 0.1, 
        "roughnessFactor": 0.7
      }
    }, 
    {
      "alphaCutoff": 1.0, 
      "alphaMode": "BLEND", 
      "pbrMetallicRoughness": {
        "baseColorFactor": [
          0.2941, 
          0.2941, 
          0.1961, 
          1.0
        ], 
        "metallicFactor": 0.1, 
        "roughnessFactor": 0.7
      }
    }, 
    {
      "alphaCutoff": 1.0, 
      "alphaMode": "BLEND", 
      "pbrMetallicRoughness": {
        "baseColorFactor": [
          0.2941, 
          0.0196, 
          0.1961, 
          1.0
        ], 
        "metallicFactor": 0.1, 
        "roughnessFactor": 0.7
      }
    }, 
    {
      "alphaCutoff": 1.0, 
      "alphaMode": "BLEND", 
      "pbrMetallicRoughness": {
        "baseColorFactor": [
          0.1961, 
          1.0, 
          1.0, 
          1.0
        ], 
        "metallicFactor": 0.1, 
        "roughnessFactor": 0.7
      }
    }, 
    {
      "alphaCutoff": 1.0, 
      "alphaMode": "BLEND", 
      "pbrMetallicRoughness": {
        "baseColorFactor": [
          0.1961, 
          1.0, 
          1.0, 
          1.0
        ], 
        "metallicFactor": 0.1, 
        "roughnessFactor": 0.7
      }
    }, 
    {
      "alphaCutoff": 1.0, 
      "alphaMode": "BLEND", 
      "pbrMetallicRoughness": {
        "baseColorFactor": [
          0.7529, 
          0.7529, 
          0.7529, 
          1.0
        ], 
        "metallicFactor": 0.1, 
        "roughnessFactor": 0.7
      }
    }
  ], 
  "meshes": [
    {
      "name": "out-carriage-box", 
      "primitives": [
        {
          "attributes": {
            "POSITION": 0
          }, 
          "indices": 1, 
          "material": 0, 
          "mode": 4
        }
      ]
    }, 
    {
      "name": "out-idle_end-box", 
      "primitives": [
        {
          "attributes": {
            "POSITION": 2
          }, 
          "indices": 3, 
          "material": 1, 
          "mode": 4
        }
      ]
    }, 
    {
      "name": "out-drive-stepper-shaft", 
      "primitives": [
        {
          "attributes": {
            "POSITION": 4
          }, 
          "indices": 5, 
          "material": 2, 
          "mode": 4
        }
      ]
    }, 
    {
      "name": "out-drive-stepper-stator", 
      "primitives": [
        {
          "attributes": {
            "POSITION": 6
          }, 
          "indices": 7, 
          "material": 3, 
          "mode": 4
        }
      ]
    }, 
    {
      "name": "out-drive-stepper-topcap", 
      "primitives": [
        {
          "attributes": {
            "POSITION": 8
          }, 
          "indices": 9, 
          "material": 4, 
          "mode": 4
        }
      ]
    }, 
    {
      "name": "out-drive-stepper-botcap", 
      "primitives": [
        {
          "attributes": {
            "POSITION": 10
          }, 
          "indices": 11, 
          "material": 5, 
          "mode": 4
        }
      ]
    }, 
    {
      "name": "out-drive-coupling", 
      "primitives": [
        {
          "attributes": {
            "POSITION": 12
          }, 
          "indices": 13, 
          "material": 6, 
          "mode": 4
        }
      ]
    }, 
    {
      "name": "out-drive-thread", 
      "primitives": [
        {
          "attributes": {
            "POSITION": 14
          }, 
          "indices": 15, 
          "material": 7, 
          "mode": 4
        }
      ]
    }, 
    {
      "name": "out-rails-rail_0000", 
      "primitives": [
        {
          "attributes": {
            "POSITION": 16
          }, 
          "indices": 17, 
          "material": 8, 
          "mode": 4
        }
      ]
    }, 
    {
      "name": "out-rails-rail_0001", 
      "primitives": [
        {
          "attributes": {
            "POSITION": 18
          }, 
          "indices": 19, 
          "material": 9, 
          "mode": 4
        }
      ]
    }, 
    {
      "name": "out-drive_end-box", 
      "primitives": [
        {
          "attributes": {
            "POSITION": 20
          }, 
          "indices": 21, 
          "material": 10, 
          "mode": 4
        }
      ]
    }
  ], 
  "nodes": [
    {
      "children": [
        1
      ], 
      "matrix": [
        0.001, 
        0.0, 
        0.0, 
        0.0, 
        0.0, 
        0.0, 
        -0.001, 
        0.0, 
        0.0, 
        0.001, 
        0.0, 
        0.0, 
        0.0, 
        0.0, 
        0.0, 
        1.0
      ]
    }, 
    {
      "children": [
        2, 
        4, 
        6, 
        14, 
        17
      ], 
      "matrix": [
        1.0, 
        0.0, 
        0.0, 
        0.0, 
        0.0, 
        1.0, 
        0.0, 
        0.0, 
        0.0, 
        0.0, 
        1.0, 
        0.0, 
        0.0, 
        0.0, 
        0.0, 
        1.0
      ], 
      "name": "out"
    }, 
    {
      "children": [
        3
      ], 
      "matrix": [
        1.0, 
        0.0, 
        0.0, 
        0.0, 
        0.0, 
        1.0, 
        0.0, 
        0.0, 
        0.0, 
        0.0, 
        1.0, 
        0.0, 
        0.0, 
        0.0, 
        0.0, 
        1.0
      ], 
      "name": "out-carriage"
    }, 
    {
      "matrix": [
        1.0, 
        0.0, 
        0.0, 
        0.0, 
        0.0, 
        1.0, 
        0.0, 
        0.0, 
        0.0, 
        0.0, 
        1.0, 
        0.0, 
        90.0, 
        0.0, 
        0.0, 
        1.0
      ], 
      "mesh": 0, 
      "name": "out-carriage-box"
    }, 
    {
      "children": [
        5
      ], 
      "matrix": [
        1.0, 
        0.0, 
        0.0, 
        0.0, 
        0.0, 
        1.0, 
        0.0, 
        0.0, 
        0.0, 
        0.0, 
        1.0, 
        0.0, 
        150.0, 
        0.0, 
        0.0, 
        1.0
      ], 
      "name": "out-idle_end"
    }, 
    {
      "matrix": [
        1.0, 
        0.0, 
        0.0, 
        0.0, 
        0.0, 
        1.0, 
        0.0, 
        0.0, 
        0.0, 
        0.0, 
        1.0, 
        0.0, 
        0.0, 
        0.0, 
        0.0, 
        1.0
      ], 
      "mesh": 1, 
      "name": "out-idle_end-box"
    }, 
    {
      "children": [
        7, 
        12, 
        13
      ], 
      "matrix": [
        0.0, 
        0.0, 
        1.0, 
        0.0, 
        -0.0, 
        -1.0, 
        -0.0, 
        -0.0, 
        1.0, 
        0.0, 
        0.0, 
        0.0, 
        -50.0, 
        0.0, 
        0.0, 
        1.0
      ], 
      "name": "out-drive"
    }, 
    {
      "children": [
        8, 
        9, 
        10, 
        11
      ], 
      "matrix": [
        1.0, 
        0.0, 
        0.0, 
        0.0, 
        0.0, 
        1.0, 
        0.0, 
        0.0, 
        0.0, 
        0.0, 
        1.0, 
        0.0, 
        0.0, 
        0.0, 
        0.0, 
        1.0
      ], 
      "name": "out-drive-stepper"
    }, 
    {
      "matrix": [
        1.0, 
        0.0, 
        0.0, 
        0.0, 
        0.0, 
        1.0, 
        0.0, 
        0.0, 
        0.0, 
        0.0, 
        1.0, 
        0.0, 
        0.0, 
        0.0, 
        0.0, 
        1.0
      ], 
      "mesh": 2, 
      "name": "out-drive-stepper-shaft"
    }, 
    {
      "matrix": [
        0.0, 
        -1.0, 
        0.0, 
        0.0, 
        1.0, 
        0.0, 
        0.0, 
        0.0, 
        0.0, 
        0.0, 
        1.0, 
        0.0, 
        0.0, 
        0.0, 
        -25.0, 
        1.0
      ], 
      "mesh": 3, 
      "name": "out-drive-stepper-stator"
    }, 
    {
      "matrix": [
        0.0, 
        -1.0, 
        0.0, 
        0.0, 
        1.0, 
        0.0, 
        0.0, 
        0.0, 
        0.0, 
        0.0, 
        1.0, 
        0.0, 
        0.0, 
        0.0, 
        -4.166666666666664, 
        1.0
      ], 
      "mesh": 4, 
      "name": "out-drive-stepper-topcap"
    }, 
    {
      "matrix": [
        1.0, 
        0.0, 
        0.0, 
        0.0, 
        0.0, 
        -1.0, 
        0.0, 
        0.0, 
        0.0, 
        0.0, 
        -1.0, 
        0.0, 
        0.0, 
        0.0, 
        -45.83333333333334, 
        1.0
      ], 
      "mesh": 5, 
      "name": "out-drive-stepper-botcap"
    }, 
    {
      "matrix": [
        1.0, 
        0.0, 
        0.0, 
        0.0, 
        0.0, 
        1.0, 
        0.0, 
        0.0, 
        0.0, 
        0.0, 
        1.0, 
        0.0, 
        0.0, 
        0.0, 
        25.5, 
        1.0
      ], 
      "mesh": 6, 
      "name": "out-drive-coupling"
    }, 
    {
      "matrix": [
        1.0, 
        0.0, 
        0.0, 
        0.0, 
        0.0, 
        1.0, 
        0.0, 
        0.0, 
        0.0, 
        0.0, 
        1.0, 
        0.0, 
        0.0, 
        0.0, 
        27.0, 
        1.0
      ], 
      "mesh": 7, 
      "name": "out-drive-thread"
    }, 
    {
      "children": [
        15, 
        16
      ], 
      "matrix": [
        1.0, 
        0.0, 
        0.0, 
        0.0, 
        0.0, 
        1.0, 
        0.0, 
        0.0, 
        0.0, 
        0.0, 
        1.0, 
        0.0, 
        0.0, 
        0.0, 
        0.0, 
        1.0
      ], 
      "name": "out-rails"
    }, 
    {
      "matrix": [
        0.0, 
        1.0, 
        0.0, 
        0.0, 
        0.0, 
        0.0, 
        1.0, 
        0.0, 
        1.0, 
        0.0, 
        0.0, 
        0.0, 
        0.0, 
        27.5, 
        0.0, 
        1.0
      ], 
      "mesh": 8, 
      "name": "out-rails-rail_0000"
    }, 
    {
      "matrix": [
        0.0, 
        1.0, 
        0.0, 
        0.0, 
        0.0, 
        0.0, 
        1.0, 
        0.0, 
        1.0, 
        0.0, 
        0.0, 
        0.0, 
        0.0, 
        -27.5, 
        0.0, 
        1.0
      ], 
      "mesh": 9, 
      "name": "out-rails-rail_0001"
    }, 
    {
      "children": [
        18
      ], 
      "matrix": [
        1.0, 
        0.0, 
        0.0, 
        0.0, 
        0.0, 
        1.0, 
        0.0, 
        0.0, 
        0.0, 
        0.0, 
        1.0, 
        0.0, 
        0.0, 
        0.0, 
        0.0, 
        1.0
      ], 
      "name": "out-drive_end"
    }, 
    {
      "matrix": [
        1.0, 
        0.0, 
        0.0, 
        0.0, 
        0.0, 
        1.0, 
        0.0, 
        0.0, 
        0.0, 
        0.0, 
        1.0, 
        0.0, 
        0.0, 
        0.0, 
        0.0, 
        1.0
      ], 
      "mesh": 10, 
      "name": "out-drive_end-box"
    }
  ], 
  "scene": 0, 
  "scenes": [
    {
      "nodes": [
        0
      ]
    }
  ]
}