{
  "accessors": [
    {
      "bufferView": 0, 
      "byteOffset": 0, 
      "componentType": 5126, 
      "count": 4188, 
      "max": [
        15.1, 
        15.098736066637253, 
        2.6
      ], 
      "min": [
        -15.1, 
        -15.098736066637253, 
        -2.6
      ], 
      "type": "VEC3"
    }, 
    {
      "bufferView": 1, 
      "byteOffset": 0, 
      "componentType": 5123, 
      "count": 25128, 
      "type": "SCALAR"
    }, 
    {
      "bufferView": 2, 
      "byteOffset": 0, 
      "componentType": 5126, 
      "count": 5500, 
      "max": [
        8.433333333333334, 
        8.433333333333334, 
        2.6
      ], 
      "min": [
        -8.433333333333334, 
        -8.433333333333334, 
        -2.6
      ], 
      "type": "VEC3"
    }, 
    {
      "bufferView": 3, 
      "byteOffset": 0, 
      "componentType": 5123, 
      "count": 33000, 
      "type": "SCALAR"
    }, 
    {
      "bufferView": 4, 
      "byteOffset": 0, 
      "componentType": 5126, 
      "count": 2232, 
      "max": [
        2.6, 
        2.598814299283415, 
        2.6
      ], 
      "min": [
        -2.6, 
        -2.598814299283415, 
        -2.6
      ], 
      "type": "VEC3"
    }, 
    {
      "bufferView": 5, 
      "byteOffset": 0, 
      "componentType": 5123, 
      "count": 13380, 
      "type": "SCALAR"
    }, 
    {
      "bufferView": 6, 
      "byteOffset": 0, 
      "componentType": 5126, 
      "count": 2232, 
      "max": [
        2.6, 
        2.598814299283415, 
        2.6
      ], 
      "min": [
        -2.6, 
        -2.598814299283415, 
        -2.6
      ], 
      "type": "VEC3"
    }, 
    {
      "bufferView": 7, 
      "byteOffset": 0, 
      "componentType": 5123, 
      "count": 13380, 
      "type": "SCALAR"
    }, 
    {
      "bufferView": 8, 
      "byteOffset": 0, 
      "componentType": 5126, 
      "count": 2232, 
      "max": [
        2.6, 
        2.598814299283415, 
        2.6
      ], 
      "min": [
        -2.6, 
        -2.598814299283415, 
        -2.6
      ], 
      "type": "VEC3"
    }, 
    {
      "bufferView": 9, 
      "byteOffset": 0, 
      "componentType": 5123, 
      "count": 13380, 
      "type": "SCALAR"
    }, 
    {
      "bufferView": 10, 
      "byteOffset": 0, 
      "componentType": 5126, 
      "count": 2232, 
      "max": [
        2.6, 
        2.598814299283415, 
        2.6
      ], 
      "min": [
        -2.6, 
        -2.598814299283415, 
        -2.6
      ], 
      "type": "VEC3"
    }, 
    {
      "bufferView": 11, 
      "byteOffset": 0, 
      "componentType": 5123, 
      "count": 13380, 
      "type": "SCALAR"
    }, 
    {
      "bufferView": 12, 
      "byteOffset": 0, 
      "componentType": 5126, 
      "count": 2232, 
      "max": [
        2.6, 
        2.598814299283415, 
        2.6
      ], 
      "min": [
        -2.6, 
        -2.598814299283415, 
        -2.6
      ], 
      "type": "VEC3"
    }, 
    {
      "bufferView": 13, 
      "byteOffset": 0, 
      "componentType": 5123, 
      "count": 13380, 
      "type": "SCALAR"
    }, 
    {
      "bufferView": 14, 
      "byteOffset": 0, 
      "componentType": 5126, 
      "count": 2232, 
      "max": [
        2.6, 
        2.598814299283415, 
        2.6
      ], 
      "min": [
        -2.6, 
        -2.598814299283415, 
        -2.6
      ], 
      "type": "VEC3"
    }, 
    {
      "bufferView": 15, 
      "byteOffset": 0, 
      "componentType": 5123, 
      "count": 13380, 
      "type": "SCALAR"
    }, 
    {
      "bufferView": 16, 
      "byteOffset": 0, 
      "componentType": 5126, 
      "count": 2232, 
      "max": [
        2.6, 
        2.598814299283415, 
        2.6
      ], 
      "min": [
        -2.6, 
        -2.598814299283415, 
        -2.6
      ], 
      "type": "VEC3"
    }, 
    {
      "bufferView": 17, 
      "byteOffset": 0, 
      "componentType": 5123, 
      "count": 13380, 
      "type": "SCALAR"
    }, 
    {
      "bufferView": 18, 
      "byteOffset": 0, 
      "componentType": 5126, 
      "count": 2232, 
      "max": [
        2.6, 
        2.598814299283415, 
        2.6
      ], 
      "min": [
        -2.6, 
        -2.598814299283415, 
        -2.6
      ], 
      "type": "VEC3"
    }, 
    {
      "bufferView": 19, 
      "byteOffset": 0, 
      "componentType": 5123, 
      "count": 13380, 
      "type": "SCALAR"
    }, 
    {
      "bufferView": 20, 
      "byteOffset": 0, 
      "componentType": 5126, 
      "count": 2232, 
      "max": [
        2.6, 
        2.598814299283415, 
        2.6
      ], 
      "min": [
        -2.6, 
        -2.598814299283415, 
        -2.6
      ], 
      "type": "VEC3"
    }, 
    {
      "bufferView": 21, 
      "byteOffset": 0, 
      "componentType": 5123, 
      "count": 13380, 
      "type": "SCALAR"
    }, 
    {
      "bufferView": 22, 
      "byteOffset": 0, 
      "componentType": 5126, 
      "count": 2232, 
      "max": [
        2.6, 
        2.598814299283415, 
        2.6
      ], 
      "min": [
        -2.6, 
        -2.598814299283415, 
        -2.6
      ], 
      "type": "VEC3"
    }, 
    {
      "bufferView": 23, 
      "byteOffset": 0, 
      "componentType": 5123, 
      "count": 13380, 
      "type": "SCALAR"
    }, 
    {
      "bufferView": 24, 
      "byteOffset": 0, 
      "componentType": 5126, 
      "count": 2232, 
      "max": [
        2.6, 
        2.598814299283415, 
        2.6
      ], 
      "min": [
        -2.6, 
        -2.598814299283415, 
        -2.6
      ], 
      "type": "VEC3"
    }, 
    {
      "bufferView": 25, 
      "byteOffset": 0, 
      "componentType": 5123, 
      "count": 13380, 
      "type": "SCALAR"
    }
  ], 
  "asset": {
    "generator": "cqparts_0.2.2.dev1", 
    "version": "2.0"
  }, 
  "bufferViews": [
    {
      "buffer": 0, 
      "byteLength": 50256, 
      "byteOffset": 0, 
      "byteStride": 12, 
      "target": 34962
    }, 
    {
      "buffer": 0, 
      "byteLength": 50256, 
      "byteOffset": 50256, 
      "target": 34963
    }, 
    {
      "buffer": 1, 
      "byteLength": 66000, 
      "byteOffset": 0, 
      "byteStride": 12, 
      "target": 34962
    }, 
    {
      "buffer": 1, 
      "byteLength": 66000, 
      "byteOffset": 66000, 
      "target": 34963
    }, 
    {
      "buffer": 2, 
      "byteLength": 26784, 
      "byteOffset": 0, 
      "byteStride": 12, 
      "target": 34962
    }, 
    {
      "buffer": 2, 
      "byteLength": 26760, 
      "byteOffset": 26784, 
      "target": 34963
    }, 
    {
      "buffer": 3, 
      "byteLength": 26784, 
      "byteOffset": 0, 
      "byteStride": 12, 
      "target": 34962
    }, 
    {
      "buffer": 3, 
      "byteLength": 26760, 
      "byteOffset": 26784, 
      "target": 34963
    }, 
    {
      "buffer": 4, 
      "byteLength": 26784, 
      "byteOffset": 0, 
      "byteStride": 12, 
      "target": 34962
    }, 
    {
      "buffer": 4, 
      "byteLength": 26760, 
      "byteOffset": 26784, 
      "target": 34963
    }, 
    {
      "buffer": 5, 
      "byteLength": 26784, 
      "byteOffset": 0, 
      "byteStride": 12, 
      "target": 34962
    }, 
    {
      "buffer": 5, 
      "byteLength": 26760, 
      "byteOffset": 26784, 
      "target": 34963
    }, 
    {
      "buffer": 6, 
      "byteLength": 26784, 
      "byteOffset": 0, 
      "byteStride": 12, 
      "target": 34962
    }, 
    {
      "buffer": 6, 
      "byteLength": 26760, 
      "byteOffset": 26784, 
      "target": 34963
    }, 
    {
      "buffer": 7, 
      "byteLength": 26784, 
      "byteOffset": 0, 
      "byteStride": 12, 
      "target": 34962
    }, 
    {
      "buffer": 7, 
      "byteLength": 26760, 
      "byteOffset": 26784, 
      "target": 34963
    }, 
    {
      "buffer": 8, 
      "byteLength": 26784, 
      "byteOffset": 0, 
      "byteStride": 12, 
      "target": 34962
    }, 
    {
      "buffer": 8, 
      "byteLength": 26760, 
      "byteOffset": 26784, 
      "target": 34963
    }, 
    {
      "buffer": 9, 
      "byteLength": 26784, 
      "byteOffset": 0, 
      "byteStride": 12, 
      "target": 34962
    }, 
    {
      "buffer": 9, 
      "byteLength": 26760, 
      "byteOffset": 26784, 
      "target": 34963
    }, 
    {
      "buffer": 10, 
      "byteLength": 26784, 
      "byteOffset": 0, 
      "byteStride": 12, 
      "target": 34962
    }, 
    {
      "buffer": 10, 
      "byteLength": 26760, 
      "byteOffset": 26784, 
      "target": 34963
    }, 
    {
      "buffer": 11, 
      "byteLength": 26784, 
      "byteOffset": 0, 
      "byteStride": 12, 
      "target": 34962
    }, 
    {
      "buffer": 11, 
      "byteLength": 26760, 
      "byteOffset": 26784, 
      "target": 34963
    }, 
    {
      "buffer": 12, 
      "byteLength": 26784, 
      "byteOffset": 0, 
      "byteStride": 12, 
      "target": 34962
    }, 
    {
      "buffer": 12, 
      "byteLength": 26760, 
      "byteOffset": 26784, 
      "target": 34963
    }
  ], 
  "buffers": [
    {
      "byteLength": 100512, 
      "uri": "out-outer_ring.bin"
    }, 
    {
      "byteLength": 132000, 
      "uri": "out-inner_ring.bin"
    }, 
    {
      "byteLength": 53544, 
      "uri": "out-rolling_elements-ball_010.bin"
    }, 
    {
      "byteLength": 53544, 
      "uri": "out-rolling_elements-ball_006.bin"
    }, 
    {
      "byteLength": 53544, 
      "uri": "out-rolling_elements-ball_007.bin"
    }, 
    {
      "byteLength": 53544, 
      "uri": "out-rolling_elements-ball_004.bin"
    }, 
    {
      "byteLength": 53544, 
      "uri": "out-rolling_elements-ball_005.bin"
    }, 
    {
      "byteLength": 53544, 
      "uri": "out-rolling_elements-ball_002.bin"
    }, 
    {
      "byteLength": 53544, 
      "uri": "out-rolling_elements-ball_003.bin"
    }, 
    {
      "byteLength": 53544, 
      "uri": "out-rolling_elements-ball_000.bin"
    }, 
    {
      "byteLength": 53544, 
      "uri": "out-rolling_elements-ball_001.bin"
    }, 
    {
      "byteLength": 53544, 
      "uri": "out-rolling_elements-ball_008.bin"
    }, 
    {
      "byteLength": 53544, 
      "uri": "out-rolling_elements-ball_009.bin"
    }
  ], 
  "materials": [
    {
      "alphaCutoff": 1.0, 
      "alphaMode": "BLEND", 
      "pbrMetallicRoughness": {
        "baseColorFactor": [
          0.7529, 
          0.7529, 
          0.7529, 
          1.0
        ], 
        "metallicFactor": 0.1, 
        "roughnessFactor": 0.7
      }
    }, 
    {
      "alphaCutoff": 1.0, 
      "alphaMode": "BLEND", 
      "pbrMetallicRoughness": {
        "baseColorFactor": [
          0.7529, 
          0.7529, 
          0.7529, 
          1.0
        ], 
        "metallicFactor": 0.1, 
        "roughnessFactor": 0.7
      }
    }, 
    {
      "alphaCutoff": 1.0, 
      "alphaMode": "BLEND", 
      "pbrMetallicRoughness": {
        "baseColorFactor": [
          0.7529, 
          0.7529, 
          0.7529, 
          1.0
        ], 
        "metallicFactor": 0.1, 
        "roughnessFactor": 0.7
      }
    }, 
    {
      "alphaCutoff": 1.0, 
      "alphaMode": "BLEND", 
      "pbrMetallicRoughness": {
        "baseColorFactor": [
          0.7529, 
          0.7529, 
          0.7529, 
          1.0
        ], 
        "metallicFactor": 0.1, 
        "roughnessFactor": 0.7
      }
    }, 
    {
      "alphaCutoff": 1.0, 
      "alphaMode": "BLEND", 
      "pbrMetallicRoughness": {
        "baseColorFactor": [
          0.7529, 
          0.7529, 
          0.7529, 
          1.0
        ], 
        "metallicFactor": 0.1, 
        "roughnessFactor": 0.7
      }
    }, 
    {
      "alphaCutoff": 1.0, 
      "alphaMode": "BLEND", 
      "pbrMetallicRoughness": {
        "baseColorFactor": [
          0.7529, 
          0.7529, 
          0.7529, 
          1.0
        ], 
        "metallicFactor": 0.1, 
        "roughnessFactor": 0.7
      }
    }, 
    {
      "alphaCutoff": 1.0, 
      "alphaMode": "BLEND", 
      "pbrMetallicRoughness": {
        "baseColorFactor": [
          0.7529, 
          0.7529, 
          0.7529, 
          1.0
        ], 
        "metallicFactor": 0.1, 
        "roughnessFactor": 0.7
      }
    }, 
    {
      "alphaCutoff": 1.0, 
      "alphaMode": "BLEND", 
      "pbrMetallicRoughness": {
        "baseColorFactor": [
          0.7529, 
          0.7529, 
          0.7529, 
          1.0
        ], 
        "metallicFactor": 0.1, 
        "roughnessFactor": 0.7
      }
    }, 
    {
      "alphaCutoff": 1.0, 
      "alphaMode": "BLEND", 
      "pbrMetallicRoughness": {
        "baseColorFactor": [
          0.7529, 
          0.7529, 
          0.7529, 
          1.0
        ], 
        "metallicFactor": 0.1, 
        "roughnessFactor": 0.7
      }
    }, 
    {
      "alphaCutoff": 1.0, 
      "alphaMode": "BLEND", 
      "pbrMetallicRoughness": {
        "baseColorFactor": [
          0.7529, 
          0.7529, 
          0.7529, 
          1.0
        ], 
        "metallicFactor": 0.1, 
        "roughnessFactor": 0.7
      }
    }, 
    {
      "alphaCutoff": 1.0, 
      "alphaMode": "BLEND", 
      "pbrMetallicRoughness": {
        "baseColorFactor": [
          0.7529, 
          0.7529, 
          0.7529, 
          1.0
        ], 
        "metallicFactor": 0.1, 
        "roughnessFactor": 0.7
      }
    }, 
    {
      "alphaCutoff": 1.0, 
      "alphaMode": "BLEND", 
      "pbrMetallicRoughness": {
        "baseColorFactor": [
          0.7529, 
          0.7529, 
          0.7529, 
          1.0
        ], 
        "metallicFactor": 0.1, 
        "roughnessFactor": 0.7
      }
    }, 
    {
      "alphaCutoff": 1.0, 
      "alphaMode": "BLEND", 
      "pbrMetallicRoughness": {
        "baseColorFactor": [
          0.7529, 
          0.7529, 
          0.7529, 
          1.0
        ], 
        "metallicFactor": 0.1, 
        "roughnessFactor": 0.7
      }
    }
  ], 
  "meshes": [
    {
      "name": "out-outer_ring", 
      "primitives": [
        {
          "attributes": {
            "POSITION": 0
          }, 
          "indices": 1, 
          "material": 0, 
          "mode": 4
        }
      ]
    }, 
    {
      "name": "out-inner_ring", 
      "primitives": [
        {
          "attributes": {
            "POSITION": 2
          }, 
          "indices": 3, 
          "material": 1, 
          "mode": 4
        }
      ]
    }, 
    {
      "name": "out-rolling_elements-ball_010", 
      "primitives": [
        {
          "attributes": {
            "POSITION": 4
          }, 
          "indices": 5, 
          "material": 2, 
          "mode": 4
        }
      ]
    }, 
    {
      "name": "out-rolling_elements-ball_006", 
      "primitives": [
        {
          "attributes": {
            "POSITION": 6
          }, 
          "indices": 7, 
          "material": 3, 
          "mode": 4
        }
      ]
    }, 
    {
      "name": "out-rolling_elements-ball_007", 
      "primitives": [
        {
          "attributes": {
            "POSITION": 8
          }, 
          "indices": 9, 
          "material": 4, 
          "mode": 4
        }
      ]
    }, 
    {
      "name": "out-rolling_elements-ball_004", 
      "primitives": [
        {
          "attributes": {
            "POSITION": 10
          }, 
          "indices": 11, 
          "material": 5, 
          "mode": 4
        }
      ]
    }, 
    {
      "name": "out-rolling_elements-ball_005", 
      "primitives": [
        {
          "attributes": {
            "POSITION": 12
          }, 
          "indices": 13, 
          "material": 6, 
          "mode": 4
        }
      ]
    }, 
    {
      "name": "out-rolling_elements-ball_002", 
      "primitives": [
        {
          "attributes": {
            "POSITION": 14
          }, 
          "indices": 15, 
          "material": 7, 
          "mode": 4
        }
      ]
    }, 
    {
      "name": "out-rolling_elements-ball_003", 
      "primitives": [
        {
          "attributes": {
            "POSITION": 16
          }, 
          "indices": 17, 
          "material": 8, 
          "mode": 4
        }
      ]
    }, 
    {
      "name": "out-rolling_elements-ball_000", 
      "primitives": [
        {
          "attributes": {
            "POSITION": 18
          }, 
          "indices": 19, 
          "material": 9, 
          "mode": 4
        }
      ]
    }, 
    {
      "name": "out-rolling_elements-ball_001", 
      "primitives": [
        {
          "attributes": {
            "POSITION": 20
          }, 
          "indices": 21, 
          "material": 10, 
          "mode": 4
        }
      ]
    }, 
    {
      "name": "out-rolling_elements-ball_008", 
      "primitives": [
        {
          "attributes": {
            "POSITION": 22
          }, 
          "indices": 23, 
          "material": 11, 
          "mode": 4
        }
      ]
    }, 
    {
      "name": "out-rolling_elements-ball_009", 
      "primitives": [
        {
          "attributes": {
            "POSITION": 24
          }, 
          "indices": 25, 
          "material": 12, 
          "mode": 4
        }
      ]
    }
  ], 
  "nodes": [
    {
      "children": [
        1
      ], 
      "matrix": [
        0.001, 
        0.0, 
        0.0, 
        0.0, 
        0.0, 
        0.0, 
        -0.001, 
        0.0, 
        0.0, 
        0.001, 
        0.0, 
        0.0, 
        0.0, 
        0.0, 
        0.0, 
        1.0
      ]
    }, 
    {
      "children": [
        2, 
        3, 
        4
      ], 
      "matrix": [
        1.0, 
        0.0, 
        0.0, 
        0.0, 
        0.0, 
        1.0, 
        0.0, 
        0.0, 
        0.0, 
        0.0, 
        1.0, 
        0.0, 
        0.0, 
        0.0, 
        0.0, 
        1.0
      ], 
      "name": "out"
    }, 
    {
      "matrix": [
        1.0, 
        0.0, 
        0.0, 
        0.0, 
        0.0, 
        1.0, 
        0.0, 
        0.0, 
        0.0, 
        0.0, 
        1.0, 
        0.0, 
        0.0, 
        0.0, 
        0.0, 
        1.0
      ], 
      "mesh": 0, 
      "name": "out-outer_ring"
    }, 
    {
      "matrix": [
        1.0, 
        0.0, 
        0.0, 
        0.0, 
        0.0, 
        1.0, 
        0.0, 
        0.0, 
        0.0, 
        0.0, 
        1.0, 
        0.0, 
        0.0, 
        0.0, 
        0.0, 
        1.0
      ], 
      "mesh": 1, 
      "name": "out-inner_ring"
    }, 
    {
      "children": [
        5, 
        6, 
        7, 
        8, 
        9, 
        10, 
        11, 
        12, 
        13, 
        14, 
        15
      ], 
      "matrix": [
        1.0, 
        0.0, 
        0.0, 
        0.0, 
        0.0, 
        1.0, 
        0.0, 
        0.0, 
        0.0, 
        0.0, 
        1.0, 
        0.0, 
        0.0, 
        0.0, 
        0.0, 
        1.0
      ], 
      "name": "out-rolling_elements"
    }, 
    {
      "matrix": [
        1.0, 
        0.0, 
        0.0, 
        0.0, 
        0.0, 
        1.0, 
        0.0, 
        0.0, 
        0.0, 
        0.0, 
        1.0, 
        0.0, 
        8.412535328311812, 
        -5.406408174555974, 
        0.0, 
        1.0
      ], 
      "mesh": 2, 
      "name": "out-rolling_elements-ball_010"
    }, 
    {
      "matrix": [
        1.0, 
        0.0, 
        0.0, 
        0.0, 
        0.0, 
        1.0, 
        0.0, 
        0.0, 
        0.0, 
        0.0, 
        1.0, 
        0.0, 
        -9.594929736144975, 
        -2.8173255684142937, 
        0.0, 
        1.0
      ], 
      "mesh": 3, 
      "name": "out-rolling_elements-ball_006"
    }, 
    {
      "matrix": [
        1.0, 
        0.0, 
        0.0, 
        0.0, 
        0.0, 
        1.0, 
        0.0, 
        0.0, 
        0.0, 
        0.0, 
        1.0, 
        0.0, 
        -6.548607339452852, 
        -7.557495743542582, 
        0.0, 
        1.0
      ], 
      "mesh": 4, 
      "name": "out-rolling_elements-ball_007"
    }, 
    {
      "matrix": [
        1.0, 
        0.0, 
        0.0, 
        0.0, 
        0.0, 
        1.0, 
        0.0, 
        0.0, 
        0.0, 
        0.0, 
        1.0, 
        0.0, 
        -6.54860733945285, 
        7.5574957435425825, 
        0.0, 
        1.0
      ], 
      "mesh": 5, 
      "name": "out-rolling_elements-ball_004"
    }, 
    {
      "matrix": [
        1.0, 
        0.0, 
        0.0, 
        0.0, 
        0.0, 
        1.0, 
        0.0, 
        0.0, 
        0.0, 
        0.0, 
        1.0, 
        0.0, 
        -9.594929736144973, 
        2.817325568414297, 
        0.0, 
        1.0
      ], 
      "mesh": 6, 
      "name": "out-rolling_elements-ball_005"
    }, 
    {
      "matrix": [
        1.0, 
        0.0, 
        0.0, 
        0.0, 
        0.0, 
        1.0, 
        0.0, 
        0.0, 
        0.0, 
        0.0, 
        1.0, 
        0.0, 
        4.154150130018865, 
        9.096319953545184, 
        0.0, 
        1.0
      ], 
      "mesh": 7, 
      "name": "out-rolling_elements-ball_002"
    }, 
    {
      "matrix": [
        1.0, 
        0.0, 
        0.0, 
        0.0, 
        0.0, 
        1.0, 
        0.0, 
        0.0, 
        0.0, 
        0.0, 
        1.0, 
        0.0, 
        -1.4231483827328502, 
        9.898214418809328, 
        0.0, 
        1.0
      ], 
      "mesh": 8, 
      "name": "out-rolling_elements-ball_003"
    }, 
    {
      "matrix": [
        1.0, 
        0.0, 
        0.0, 
        0.0, 
        0.0, 
        1.0, 
        0.0, 
        0.0, 
        0.0, 
        0.0, 
        1.0, 
        0.0, 
        10.0, 
        0.0, 
        0.0, 
        1.0
      ], 
      "mesh": 9, 
      "name": "out-rolling_elements-ball_000"
    }, 
    {
      "matrix": [
        1.0, 
        0.0, 
        0.0, 
        0.0, 
        0.0, 
        1.0, 
        0.0, 
        0.0, 
        0.0, 
        0.0, 
        1.0, 
        0.0, 
        8.412535328311812, 
        5.406408174555976, 
        0.0, 
        1.0
      ], 
      "mesh": 10, 
      "name": "out-rolling_elements-ball_001"
    }, 
    {
      "matrix": [
        1.0, 
        0.0, 
        0.0, 
        0.0, 
        0.0, 
        1.0, 
        0.0, 
        0.0, 
        0.0, 
        0.0, 
        1.0, 
        0.0, 
        -1.4231483827328524, 
        -9.898214418809326, 
        0.0, 
        1.0
      ], 
      "mesh": 11, 
      "name": "out-rolling_elements-ball_008"
    }, 
    {
      "matrix": [
        1.0, 
        0.0, 
        0.0, 
        0.0, 
        0.0, 
        1.0, 
        0.0, 
        0.0, 
        0.0, 
        0.0, 
        1.0, 
        0.0, 
        4.15415013001886, 
        -9.096319953545185, 
        0.0, 
        1.0
      ], 
      "mesh": 12, 
      "name": "out-rolling_elements-ball_009"
    }
  ], 
  "scene": 0, 
  "scenes": [
    {
      "nodes": [
        0
      ]
    }
  ]
}