{
  "accessors": [
    {
      "bufferView": 0, 
      "byteOffset": 0, 
      "componentType": 5126, 
      "count": 8, 
      "max": [
        0.6, 
        10.1, 
        0.6
      ], 
      "min": [
        -0.6, 
        -0.1, 
        -0.6
      ], 
      "type": "VEC3"
    }, 
    {
      "bufferView": 1, 
      "byteOffset": 0, 
      "componentType": 5121, 
      "count": 36, 
      "type": "SCALAR"
    }, 
    {
      "bufferView": 2, 
      "byteOffset": 0, 
      "componentType": 5126, 
      "count": 8, 
      "max": [
        10.1, 
        0.6, 
        0.6
      ], 
      "min": [
        -0.1, 
        -0.6, 
        -0.6
      ], 
      "type": "VEC3"
    }, 
    {
      "bufferView": 3, 
      "byteOffset": 0, 
      "componentType": 5121, 
      "count": 36, 
      "type": "SCALAR"
    }, 
    {
      "bufferView": 4, 
      "byteOffset": 0, 
      "componentType": 5126, 
      "count": 8, 
      "max": [
        0.6, 
        0.6, 
        10.1
      ], 
      "min": [
        -0.6, 
        -0.6, 
        -0.1
      ], 
      "type": "VEC3"
    }, 
    {
      "bufferView": 5, 
      "byteOffset": 0, 
      "componentType": 5121, 
      "count": 36, 
      "type": "SCALAR"
    }
  ], 
  "asset": {
    "generator": "cqparts_0.2.2.dev1", 
    "version": "2.0"
  }, 
  "bufferViews": [
    {
      "buffer": 0, 
      "byteLength": 96, 
      "byteOffset": 0, 
      "byteStride": 12, 
      "target": 34962
    }, 
    {
      "buffer": 0, 
      "byteLength": 36, 
      "byteOffset": 96, 
      "target": 34963
    }, 
    {
      "buffer": 1, 
      "byteLength": 96, 
      "byteOffset": 0, 
      "byteStride": 12, 
      "target": 34962
    }, 
    {
      "buffer": 1, 
      "byteLength": 36, 
      "byteOffset": 96, 
      "target": 34963
    }, 
    {
      "buffer": 2, 
      "byteLength": 96, 
      "byteOffset": 0, 
      "byteStride": 12, 
      "target": 34962
    }, 
    {
      "buffer": 2, 
      "byteLength": 36, 
      "byteOffset": 96, 
      "target": 34963
    }
  ], 
  "buffers": [
    {
      "byteLength": 132, 
      "uri": "out-y.bin"
    }, 
    {
      "byteLength": 132, 
      "uri": "out-x.bin"
    }, 
    {
      "byteLength": 132, 
      "uri": "out-z.bin"
    }
  ], 
  "materials": [
    {
      "alphaCutoff": 1.0, 
      "alphaMode": "BLEND", 
      "pbrMetallicRoughness": {
        "baseColorFactor": [
          0.0, 
          1.0, 
          0.0, 
          1.0
        ], 
        "metallicFactor": 0.1, 
        "roughnessFactor": 0.7
      }
    }, 
    {
      "alphaCutoff": 1.0, 
      "alphaMode": "BLEND", 
      "pbrMetallicRoughness": {
        "baseColorFactor": [
          1.0, 
          0.0, 
          0.0, 
          1.0
        ], 
        "metallicFactor": 0.1, 
        "roughnessFactor": 0.7
      }
    }, 
    {
      "alphaCutoff": 1.0, 
      "alphaMode": "BLEND", 
      "pbrMetallicRoughness": {
        "baseColorFactor": [
          0.0, 
          0.0, 
          1.0, 
          1.0
        ], 
        "metallicFactor": 0.1, 
        "roughnessFactor": 0.7
      }
    }
  ], 
  "meshes": [
    {
      "name": "out-y", 
      "primitives": [
        {
          "attributes": {
            "POSITION": 0
          }, 
          "indices": 1, 
          "material": 0, 
          "mode": 4
        }
      ]
    }, 
    {
      "name": "out-x", 
      "primitives": [
        {
          "attributes": {
            "POSITION": 2
          }, 
          "indices": 3, 
          "material": 1, 
          "mode": 4
        }
      ]
    }, 
    {
      "name": "out-z", 
      "primitives": [
        {
          "attributes": {
            "POSITION": 4
          }, 
          "indices": 5, 
          "material": 2, 
          "mode": 4
        }
      ]
    }
  ], 
  "nodes": [
    {
      "children": [
        1
      ], 
      "matrix": [
        0.001, 
        0.0, 
        0.0, 
        0.0, 
        0.0, 
        0.0, 
        -0.001, 
        0.0, 
        0.0, 
        0.001, 
        0.0, 
        0.0, 
        0.0, 
        0.0, 
        0.0, 
        1.0
      ]
    }, 
    {
      "children": [
        2, 
        3, 
        4
      ], 
      "matrix": [
        1.0, 
        0.0, 
        0.0, 
        0.0, 
        0.0, 
        1.0, 
        0.0, 
        0.0, 
        0.0, 
        0.0, 
        1.0, 
        0.0, 
        0.0, 
        0.0, 
        0.0, 
        1.0
      ], 
      "name": "out"
    }, 
    {
      "matrix": [
        1.0, 
        0.0, 
        0.0, 
        0.0, 
        0.0, 
        1.0, 
        0.0, 
        0.0, 
        0.0, 
        0.0, 
        1.0, 
        0.0, 
        0.0, 
        0.0, 
        0.0, 
        1.0
      ], 
      "mesh": 0, 
      "name": "out-y"
    }, 
    {
      "matrix": [
        1.0, 
        0.0, 
        0.0, 
        0.0, 
        0.0, 
        1.0, 
        0.0, 
        0.0, 
        0.0, 
        0.0, 
        1.0, 
        0.0, 
        0.0, 
        0.0, 
        0.0, 
        1.0
      ], 
      "mesh": 1, 
      "name": "out-x"
    }, 
    {
      "matrix": [
        1.0, 
        0.0, 
        0.0, 
        0.0, 
        0.0, 
        1.0, 
        0.0, 
        0.0, 
        0.0, 
        0.0, 
        1.0, 
        0.0, 
        0.0, 
        0.0, 
        0.0, 
        1.0
      ], 
      "mesh": 2, 
      "name": "out-z"
    }
  ], 
  "scene": 0, 
  "scenes": [
    {
      "nodes": [
        0
      ]
    }
  ]
}