{
  "accessors": [
    {
      "bufferView": 0, 
      "byteOffset": 0, 
      "componentType": 5126, 
      "count": 352, 
      "max": [
        8.1, 
        8.1, 
        12.1
      ], 
      "min": [
        -8.1, 
        -8.1, 
        -0.1
      ], 
      "type": "VEC3"
    }, 
    {
      "bufferView": 1, 
      "byteOffset": 0, 
      "componentType": 5123, 
      "count": 2100, 
      "type": "SCALAR"
    }, 
    {
      "bufferView": 2, 
      "byteOffset": 0, 
      "componentType": 5126, 
      "count": 1048, 
      "max": [
        24.1, 
        112.6, 
        40.1
      ], 
      "min": [
        -0.1, 
        -112.6, 
        -0.1
      ], 
      "type": "VEC3"
    }, 
    {
      "bufferView": 3, 
      "byteOffset": 0, 
      "componentType": 5123, 
      "count": 6300, 
      "type": "SCALAR"
    }, 
    {
      "bufferView": 4, 
      "byteOffset": 0, 
      "componentType": 5126, 
      "count": 2540, 
      "max": [
        7.6, 
        7.6, 
        24.1
      ], 
      "min": [
        -7.6, 
        -7.6, 
        -0.1
      ], 
      "type": "VEC3"
    }, 
    {
      "bufferView": 5, 
      "byteOffset": 0, 
      "componentType": 5123, 
      "count": 15240, 
      "type": "SCALAR"
    }, 
    {
      "bufferView": 6, 
      "byteOffset": 0, 
      "componentType": 5126, 
      "count": 2540, 
      "max": [
        7.6, 
        7.6, 
        24.1
      ], 
      "min": [
        -7.6, 
        -7.6, 
        -0.1
      ], 
      "type": "VEC3"
    }, 
    {
      "bufferView": 7, 
      "byteOffset": 0, 
      "componentType": 5123, 
      "count": 15240, 
      "type": "SCALAR"
    }, 
    {
      "bufferView": 8, 
      "byteOffset": 0, 
      "componentType": 5126, 
      "count": 504, 
      "max": [
        10.1, 
        112.6, 
        50.1
      ], 
      "min": [
        -0.1, 
        -112.6, 
        -0.1
      ], 
      "type": "VEC3"
    }, 
    {
      "bufferView": 9, 
      "byteOffset": 0, 
      "componentType": 5123, 
      "count": 3036, 
      "type": "SCALAR"
    }, 
    {
      "bufferView": 10, 
      "byteOffset": 0, 
      "componentType": 5126, 
      "count": 286, 
      "max": [
        2.6, 
        2.5987155405017197, 
        150.1
      ], 
      "min": [
        -2.6, 
        -2.5987155405017197, 
        -0.1
      ], 
      "type": "VEC3"
    }, 
    {
      "bufferView": 11, 
      "byteOffset": 0, 
      "componentType": 5123, 
      "count": 1704, 
      "type": "SCALAR"
    }, 
    {
      "bufferView": 12, 
      "byteOffset": 0, 
      "componentType": 5126, 
      "count": 366, 
      "max": [
        4.1, 
        4.1, 
        150.1
      ], 
      "min": [
        -4.1, 
        -4.1, 
        -0.1
      ], 
      "type": "VEC3"
    }, 
    {
      "bufferView": 13, 
      "byteOffset": 0, 
      "componentType": 5123, 
      "count": 2184, 
      "type": "SCALAR"
    }, 
    {
      "bufferView": 14, 
      "byteOffset": 0, 
      "componentType": 5126, 
      "count": 366, 
      "max": [
        4.1, 
        4.1, 
        150.1
      ], 
      "min": [
        -4.1, 
        -4.1, 
        -0.1
      ], 
      "type": "VEC3"
    }, 
    {
      "bufferView": 15, 
      "byteOffset": 0, 
      "componentType": 5123, 
      "count": 2184, 
      "type": "SCALAR"
    }, 
    {
      "bufferView": 16, 
      "byteOffset": 0, 
      "componentType": 5126, 
      "count": 504, 
      "max": [
        10.1, 
        112.6, 
        50.1
      ], 
      "min": [
        -0.1, 
        -112.6, 
        -0.1
      ], 
      "type": "VEC3"
    }, 
    {
      "bufferView": 17, 
      "byteOffset": 0, 
      "componentType": 5123, 
      "count": 3036, 
      "type": "SCALAR"
    }
  ], 
  "asset": {
    "generator": "cqparts_0.2.2.dev1", 
    "version": "2.0"
  }, 
  "bufferViews": [
    {
      "buffer": 0, 
      "byteLength": 4224, 
      "byteOffset": 0, 
      "byteStride": 12, 
      "target": 34962
    }, 
    {
      "buffer": 0, 
      "byteLength": 4200, 
      "byteOffset": 4224, 
      "target": 34963
    }, 
    {
      "buffer": 1, 
      "byteLength": 12576, 
      "byteOffset": 0, 
      "byteStride": 12, 
      "target": 34962
    }, 
    {
      "buffer": 1, 
      "byteLength": 12600, 
      "byteOffset": 12576, 
      "target": 34963
    }, 
    {
      "buffer": 2, 
      "byteLength": 30480, 
      "byteOffset": 0, 
      "byteStride": 12, 
      "target": 34962
    }, 
    {
      "buffer": 2, 
      "byteLength": 30480, 
      "byteOffset": 30480, 
      "target": 34963
    }, 
    {
      "buffer": 3, 
      "byteLength": 30480, 
      "byteOffset": 0, 
      "byteStride": 12, 
      "target": 34962
    }, 
    {
      "buffer": 3, 
      "byteLength": 30480, 
      "byteOffset": 30480, 
      "target": 34963
    }, 
    {
      "buffer": 4, 
      "byteLength": 6048, 
      "byteOffset": 0, 
      "byteStride": 12, 
      "target": 34962
    }, 
    {
      "buffer": 4, 
      "byteLength": 6072, 
      "byteOffset": 6048, 
      "target": 34963
    }, 
    {
      "buffer": 5, 
      "byteLength": 3432, 
      "byteOffset": 0, 
      "byteStride": 12, 
      "target": 34962
    }, 
    {
      "buffer": 5, 
      "byteLength": 3408, 
      "byteOffset": 3432, 
      "target": 34963
    }, 
    {
      "buffer": 6, 
      "byteLength": 4392, 
      "byteOffset": 0, 
      "byteStride": 12, 
      "target": 34962
    }, 
    {
      "buffer": 6, 
      "byteLength": 4368, 
      "byteOffset": 4392, 
      "target": 34963
    }, 
    {
      "buffer": 7, 
      "byteLength": 4392, 
      "byteOffset": 0, 
      "byteStride": 12, 
      "target": 34962
    }, 
    {
      "buffer": 7, 
      "byteLength": 4368, 
      "byteOffset": 4392, 
      "target": 34963
    }, 
    {
      "buffer": 8, 
      "byteLength": 6048, 
      "byteOffset": 0, 
      "byteStride": 12, 
      "target": 34962
    }, 
    {
      "buffer": 8, 
      "byteLength": 6072, 
      "byteOffset": 6048, 
      "target": 34963
    }
  ], 
  "buffers": [
    {
      "byteLength": 8424, 
      "uri": "out-carriage-driven.bin"
    }, 
    {
      "byteLength": 25176, 
      "uri": "out-carriage-block.bin"
    }, 
    {
      "byteLength": 60960, 
      "uri": "out-carriage-rail_0000.bin"
    }, 
    {
      "byteLength": 60960, 
      "uri": "out-carriage-rail_0001.bin"
    }, 
    {
      "byteLength": 12120, 
      "uri": "out-idle_end-block.bin"
    }, 
    {
      "byteLength": 6840, 
      "uri": "out-drive-drive.bin"
    }, 
    {
      "byteLength": 8760, 
      "uri": "out-rails-rail_0000.bin"
    }, 
    {
      "byteLength": 8760, 
      "uri": "out-rails-rail_0001.bin"
    }, 
    {
      "byteLength": 12120, 
      "uri": "out-drive_end-block.bin"
    }
  ], 
  "materials": [
    {
      "alphaCutoff": 1.0, 
      "alphaMode": "BLEND", 
      "pbrMetallicRoughness": {
        "baseColorFactor": [
          0.9216, 
          0.5961, 
          0.3059, 
          1.0
        ], 
        "metallicFactor": 0.1, 
        "roughnessFactor": 0.7
      }
    }, 
    {
      "alphaCutoff": 1.0, 
      "alphaMode": "BLEND", 
      "pbrMetallicRoughness": {
        "baseColorFactor": [
          0.3294, 
          0.3294, 
          0.3294, 
          1.0
        ], 
        "metallicFactor": 0.1, 
        "roughnessFactor": 0.7
      }
    }, 
    {
      "alphaCutoff": 1.0, 
      "alphaMode": "BLEND", 
      "pbrMetallicRoughness": {
        "baseColorFactor": [
          0.7529, 
          0.7529, 
          0.7529, 
          1.0
        ], 
        "metallicFactor": 0.1, 
        "roughnessFactor": 0.7
      }
    }, 
    {
      "alphaCutoff": 1.0, 
      "alphaMode": "BLEND", 
      "pbrMetallicRoughness": {
        "baseColorFactor": [
          0.7529, 
          0.7529, 
          0.7529, 
          1.0
        ], 
        "metallicFactor": 0.1, 
        "roughnessFactor": 0.7
      }
    }, 
    {
      "alphaCutoff": 1.0, 
      "alphaMode": "BLEND", 
      "pbrMetallicRoughness": {
        "baseColorFactor": [
          0.3294, 
          0.3294, 
          0.3294, 
          1.0
        ], 
        "metallicFactor": 0.1, 
        "roughnessFactor": 0.7
      }
    }, 
    {
      "alphaCutoff": 1.0, 
      "alphaMode": "BLEND", 
      "pbrMetallicRoughness": {
        "baseColorFactor": [
          0.2941, 
          0.0196, 
          0.1961, 
          1.0
        ], 
        "metallicFactor": 0.1, 
        "roughnessFactor": 0.7
      }
    }, 
    {
      "alphaCutoff": 1.0, 
      "alphaMode": "BLEND", 
      "pbrMetallicRoughness": {
        "baseColorFactor": [
          0.1961, 
          1.0, 
          1.0, 
          1.0
        ], 
        "metallicFactor": 0.1, 
        "roughnessFactor": 0.7
      }
    }, 
    {
      "alphaCutoff": 1.0, 
      "alphaMode": "BLEND", 
      "pbrMetallicRoughness": {
        "baseColorFactor": [
          0.1961, 
          1.0, 
          1.0, 
          1.0
        ], 
        "metallicFactor": 0.1, 
        "roughnessFactor": 0.7
      }
    }, 
    {
      "alphaCutoff": 1.0, 
      "alphaMode": "BLEND", 
      "pbrMetallicRoughness": {
        "baseColorFactor": [
          0.3294, 
          0.3294, 
          0.3294, 
          1.0
        ], 
        "metallicFactor": 0.1, 
        "roughnessFactor": 0.7
      }
    }
  ], 
  "meshes": [
    {
      "name": "out-carriage-driven", 
      "primitives": [
        {
          "attributes": {
            "POSITION": 0
          }, 
          "indices": 1, 
          "material": 0, 
          "mode": 4
        }
      ]
    }, 
    {
      "name": "out-carriage-block", 
      "primitives": [
        {
          "attributes": {
            "POSITION": 2
          }, 
          "indices": 3, 
          "material": 1, 
          "mode": 4
        }
      ]
    }, 
    {
      "name": "out-carriage-rail_0000", 
      "primitives": [
        {
          "attributes": {
            "POSITION": 4
          }, 
          "indices": 5, 
          "material": 2, 
          "mode": 4
        }
      ]
    }, 
    {
      "name": "out-carriage-rail_0001", 
      "primitives": [
        {
          "attributes": {
            "POSITION": 6
          }, 
          "indices": 7, 
          "material": 3, 
          "mode": 4
        }
      ]
    }, 
    {
      "name": "out-idle_end-block", 
      "primitives": [
        {
          "attributes": {
            "POSITION": 8
          }, 
          "indices": 9, 
          "material": 4, 
          "mode": 4
        }
      ]
    }, 
    {
      "name": "out-drive-drive", 
      "primitives": [
        {
          "attributes": {
            "POSITION": 10
          }, 
          "indices": 11, 
          "material": 5, 
          "mode": 4
        }
      ]
    }, 
    {
      "name": "out-rails-rail_0000", 
      "primitives": [
        {
          "attributes": {
            "POSITION": 12
          }, 
          "indices": 13, 
          "material": 6, 
          "mode": 4
        }
      ]
    }, 
    {
      "name": "out-rails-rail_0001", 
      "primitives": [
        {
          "attributes": {
            "POSITION": 14
          }, 
          "indices": 15, 
          "material": 7, 
          "mode": 4
        }
      ]
    }, 
    {
      "name": "out-drive_end-block", 
      "primitives": [
        {
          "attributes": {
            "POSITION": 16
          }, 
          "indices": 17, 
          "material": 8, 
          "mode": 4
        }
      ]
    }
  ], 
  "nodes": [
    {
      "children": [
        1
      ], 
      "matrix": [
        0.001, 
        0.0, 
        0.0, 
        0.0, 
        0.0, 
        0.0, 
        -0.001, 
        0.0, 
        0.0, 
        0.001, 
        0.0, 
        0.0, 
        0.0, 
        0.0, 
        0.0, 
        1.0
      ]
    }, 
    {
      "children": [
        2, 
        7, 
        9, 
        11, 
        14
      ], 
      "matrix": [
        1.0, 
        0.0, 
        0.0, 
        0.0, 
        0.0, 
        1.0, 
        0.0, 
        0.0, 
        0.0, 
        0.0, 
        1.0, 
        0.0, 
        0.0, 
        0.0, 
        0.0, 
        1.0
      ], 
      "name": "out"
    }, 
    {
      "children": [
        3, 
        4, 
        5, 
        6
      ], 
      "matrix": [
        1.0, 
        0.0, 
        0.0, 
        0.0, 
        0.0, 
        1.0, 
        0.0, 
        0.0, 
        0.0, 
        0.0, 
        1.0, 
        0.0, 
        0.0, 
        0.0, 
        0.0, 
        1.0
      ], 
      "name": "out-carriage"
    }, 
    {
      "matrix": [
        0.0, 
        1.0, 
        0.0, 
        0.0, 
        0.0, 
        0.0, 
        1.0, 
        0.0, 
        1.0, 
        0.0, 
        0.0, 
        0.0, 
        90.0, 
        0.0, 
        25.0, 
        1.0
      ], 
      "mesh": 0, 
      "name": "out-carriage-driven"
    }, 
    {
      "matrix": [
        1.0, 
        0.0, 
        0.0, 
        0.0, 
        0.0, 
        1.0, 
        0.0, 
        0.0, 
        0.0, 
        0.0, 
        1.0, 
        0.0, 
        90.0, 
        0.0, 
        10.0, 
        1.0
      ], 
      "mesh": 1, 
      "name": "out-carriage-block"
    }, 
    {
      "matrix": [
        0.0, 
        1.0, 
        0.0, 
        0.0, 
        0.0, 
        0.0, 
        1.0, 
        0.0, 
        1.0, 
        0.0, 
        0.0, 
        0.0, 
        90.0, 
        102.5, 
        35.0, 
        1.0
      ], 
      "mesh": 2, 
      "name": "out-carriage-rail_0000"
    }, 
    {
      "matrix": [
        0.0, 
        1.0, 
        0.0, 
        0.0, 
        0.0, 
        0.0, 
        1.0, 
        0.0, 
        1.0, 
        0.0, 
        0.0, 
        0.0, 
        90.0, 
        -102.5, 
        35.0, 
        1.0
      ], 
      "mesh": 3, 
      "name": "out-carriage-rail_0001"
    }, 
    {
      "children": [
        8
      ], 
      "matrix": [
        -1.0, 
        -0.0, 
        -0.0, 
        -0.0, 
        -0.0, 
        -1.0, 
        -0.0, 
        -0.0, 
        0.0, 
        0.0, 
        1.0, 
        0.0, 
        150.0, 
        0.0, 
        0.0, 
        1.0
      ], 
      "name": "out-idle_end"
    }, 
    {
      "matrix": [
        1.0, 
        0.0, 
        0.0, 
        0.0, 
        0.0, 
        1.0, 
        0.0, 
        0.0, 
        0.0, 
        0.0, 
        1.0, 
        0.0, 
        0.0, 
        0.0, 
        0.0, 
        1.0
      ], 
      "mesh": 4, 
      "name": "out-idle_end-block"
    }, 
    {
      "children": [
        10
      ], 
      "matrix": [
        1.0, 
        0.0, 
        0.0, 
        0.0, 
        0.0, 
        1.0, 
        0.0, 
        0.0, 
        0.0, 
        0.0, 
        1.0, 
        0.0, 
        0.0, 
        0.0, 
        25.0, 
        1.0
      ], 
      "name": "out-drive"
    }, 
    {
      "matrix": [
        0.0, 
        1.0, 
        0.0, 
        0.0, 
        0.0, 
        0.0, 
        1.0, 
        0.0, 
        1.0, 
        0.0, 
        0.0, 
        0.0, 
        0.0, 
        0.0, 
        0.0, 
        1.0
      ], 
      "mesh": 5, 
      "name": "out-drive-drive"
    }, 
    {
      "children": [
        12, 
        13
      ], 
      "matrix": [
        1.0, 
        0.0, 
        0.0, 
        0.0, 
        0.0, 
        1.0, 
        0.0, 
        0.0, 
        0.0, 
        0.0, 
        1.0, 
        0.0, 
        0.0, 
        0.0, 
        0.0, 
        1.0
      ], 
      "name": "out-rails"
    }, 
    {
      "matrix": [
        0.0, 
        1.0, 
        0.0, 
        0.0, 
        0.0, 
        0.0, 
        1.0, 
        0.0, 
        1.0, 
        0.0, 
        0.0, 
        0.0, 
        0.0, 
        102.5, 
        35.0, 
        1.0
      ], 
      "mesh": 6, 
      "name": "out-rails-rail_0000"
    }, 
    {
      "matrix": [
        0.0, 
        1.0, 
        0.0, 
        0.0, 
        0.0, 
        0.0, 
        1.0, 
        0.0, 
        1.0, 
        0.0, 
        0.0, 
        0.0, 
        0.0, 
        -102.5, 
        35.0, 
        1.0
      ], 
      "mesh": 7, 
      "name": "out-rails-rail_0001"
    }, 
    {
      "children": [
        15
      ], 
      "matrix": [
        1.0, 
        0.0, 
        0.0, 
        0.0, 
        0.0, 
        1.0, 
        0.0, 
        0.0, 
        0.0, 
        0.0, 
        1.0, 
        0.0, 
        0.0, 
        0.0, 
        0.0, 
        1.0
      ], 
      "name": "out-drive_end"
    }, 
    {
      "matrix": [
        1.0, 
        0.0, 
        0.0, 
        0.0, 
        0.0, 
        1.0, 
        0.0, 
        0.0, 
        0.0, 
        0.0, 
        1.0, 
        0.0, 
        0.0, 
        0.0, 
        0.0, 
        1.0
      ], 
      "mesh": 8, 
      "name": "out-drive_end-block"
    }
  ], 
  "scene": 0, 
  "scenes": [
    {
      "nodes": [
        0
      ]
    }
  ]
}